<svg width="1280" height="403" viewBox="0 0 1280 403" fill="none" xmlns="http://www.w3.org/2000/svg">
<rect x="-73.5889" width="1428.29" height="403" fill="#EDE3DA"/>
<path d="M164.369 176L138.929 111.104H142.289L166.577 173.216H165.137L189.617 111.104H192.881L167.249 176H164.369ZM215.024 176.96C210.736 176.96 206.864 175.936 203.408 173.888C200.016 171.84 197.296 169.056 195.248 165.536C193.264 162.016 192.272 158.08 192.272 153.728C192.272 149.44 193.264 145.568 195.248 142.112C197.296 138.656 200.016 135.936 203.408 133.952C206.864 131.904 210.736 130.88 215.024 130.88C219.248 130.88 223.056 131.904 226.448 133.952C229.904 135.936 232.624 138.656 234.608 142.112C236.656 145.568 237.68 149.44 237.68 153.728C237.68 158.144 236.656 162.112 234.608 165.632C232.624 169.088 229.904 171.84 226.448 173.888C223.056 175.936 219.248 176.96 215.024 176.96ZM215.024 174.176C218.736 174.176 222.064 173.28 225.008 171.488C227.952 169.696 230.288 167.264 232.016 164.192C233.744 161.056 234.608 157.536 234.608 153.632C234.608 149.856 233.744 146.464 232.016 143.456C230.288 140.448 227.952 138.08 225.008 136.352C222.064 134.56 218.736 133.664 215.024 133.664C211.312 133.664 207.952 134.56 204.944 136.352C202 138.08 199.664 140.448 197.936 143.456C196.208 146.464 195.344 149.888 195.344 153.728C195.344 157.632 196.208 161.12 197.936 164.192C199.664 167.264 202 169.696 204.944 171.488C207.952 173.28 211.312 174.176 215.024 174.176ZM255.317 176V113.024H258.293V176H255.317ZM243.605 134.432V131.84H269.909V134.432H243.605ZM280.559 176V131.84H283.535V176H280.559ZM283.535 149.024L281.519 148.448C281.519 142.816 282.991 138.496 285.935 135.488C288.943 132.416 292.687 130.88 297.167 130.88C299.343 130.88 301.359 131.264 303.215 132.032C305.135 132.8 306.895 134.016 308.495 135.68L306.479 137.888C305.135 136.416 303.663 135.36 302.063 134.72C300.527 134.08 298.735 133.76 296.687 133.76C292.783 133.76 289.615 135.104 287.183 137.792C284.751 140.416 283.535 144.16 283.535 149.024ZM335.971 176.96C331.555 176.96 327.587 175.968 324.067 173.984C320.611 171.936 317.859 169.184 315.811 165.728C313.827 162.208 312.835 158.24 312.835 153.824C312.835 149.472 313.795 145.568 315.715 142.112C317.699 138.656 320.387 135.936 323.779 133.952C327.235 131.904 331.107 130.88 335.395 130.88C339.363 130.88 342.851 131.776 345.859 133.568C348.931 135.296 351.331 137.728 353.059 140.864C354.787 144 355.651 147.616 355.651 151.712C355.651 151.968 355.619 152.384 355.555 152.96C355.555 153.472 355.491 154.144 355.363 154.976H314.947V152.192H353.443L352.579 152.864C352.835 149.088 352.259 145.76 350.851 142.88C349.443 140 347.395 137.76 344.707 136.16C342.083 134.496 338.947 133.664 335.299 133.664C331.459 133.664 328.067 134.528 325.123 136.256C322.243 137.92 319.971 140.256 318.307 143.264C316.707 146.208 315.907 149.664 315.907 153.632C315.907 157.728 316.739 161.312 318.403 164.384C320.131 167.456 322.531 169.856 325.603 171.584C328.675 173.312 332.259 174.176 336.355 174.176C339.427 174.176 342.243 173.6 344.803 172.448C347.427 171.296 349.635 169.568 351.427 167.264L353.443 169.28C351.459 171.648 348.931 173.536 345.859 174.944C342.851 176.288 339.555 176.96 335.971 176.96ZM384.272 176L410.672 111.104H413.552L439.76 176H436.4L411.344 113.792H412.784L387.536 176H384.272ZM395.312 154.592V151.808H428.816V154.592H395.312ZM464.887 176.96C462.519 176.96 460.279 176.64 458.167 176C456.119 175.296 454.263 174.368 452.599 173.216C450.935 172 449.463 170.624 448.183 169.088L450.199 166.976C452.119 169.472 454.327 171.328 456.823 172.544C459.319 173.696 462.039 174.272 464.983 174.272C468.631 174.272 471.543 173.504 473.719 171.968C475.895 170.368 476.983 168.192 476.983 165.44C476.983 163.008 476.343 161.088 475.063 159.68C473.847 158.272 472.247 157.184 470.263 156.416C468.279 155.648 466.167 154.944 463.927 154.304C461.751 153.664 459.671 152.928 457.687 152.096C455.703 151.2 454.071 149.984 452.791 148.448C451.575 146.848 450.967 144.704 450.967 142.016C450.967 139.84 451.543 137.92 452.695 136.256C453.847 134.592 455.479 133.28 457.591 132.32C459.703 131.36 462.199 130.88 465.079 130.88C468.215 130.88 471.095 131.456 473.719 132.608C476.343 133.696 478.391 135.296 479.863 137.408L477.847 139.424C476.567 137.632 474.775 136.224 472.471 135.2C470.167 134.112 467.607 133.568 464.791 133.568C461.207 133.568 458.487 134.368 456.631 135.968C454.775 137.568 453.847 139.552 453.847 141.92C453.847 144.16 454.455 145.92 455.671 147.2C456.951 148.48 458.583 149.472 460.567 150.176C462.551 150.88 464.631 151.552 466.807 152.192C469.047 152.768 471.159 153.536 473.143 154.496C475.127 155.392 476.727 156.672 477.943 158.336C479.223 159.936 479.863 162.176 479.863 165.056C479.863 168.704 478.487 171.616 475.735 173.792C473.047 175.904 469.431 176.96 464.887 176.96ZM512.118 176.96C507.83 176.96 503.958 175.936 500.502 173.888C497.11 171.84 494.39 169.056 492.342 165.536C490.358 162.016 489.366 158.08 489.366 153.728C489.366 149.44 490.358 145.568 492.342 142.112C494.39 138.656 497.11 135.936 500.502 133.952C503.958 131.904 507.83 130.88 512.118 130.88C515.318 130.88 518.294 131.488 521.046 132.704C523.862 133.856 526.262 135.488 528.246 137.6L526.23 139.616C524.502 137.76 522.422 136.32 519.99 135.296C517.558 134.208 514.934 133.664 512.118 133.664C508.406 133.664 505.046 134.56 502.038 136.352C499.094 138.08 496.758 140.448 495.03 143.456C493.302 146.464 492.438 149.888 492.438 153.728C492.438 157.632 493.302 161.12 495.03 164.192C496.758 167.264 499.094 169.696 502.038 171.488C505.046 173.28 508.406 174.176 512.118 174.176C514.998 174.176 517.654 173.664 520.086 172.64C522.582 171.552 524.726 170.048 526.518 168.128L528.534 170.144C526.486 172.32 524.022 174.016 521.142 175.232C518.326 176.384 515.318 176.96 512.118 176.96ZM559.283 176.96C554.867 176.96 550.899 175.968 547.379 173.984C543.923 171.936 541.171 169.184 539.123 165.728C537.139 162.208 536.147 158.24 536.147 153.824C536.147 149.472 537.107 145.568 539.027 142.112C541.011 138.656 543.699 135.936 547.091 133.952C550.547 131.904 554.419 130.88 558.707 130.88C562.675 130.88 566.163 131.776 569.171 133.568C572.243 135.296 574.643 137.728 576.371 140.864C578.099 144 578.963 147.616 578.963 151.712C578.963 151.968 578.931 152.384 578.867 152.96C578.867 153.472 578.803 154.144 578.675 154.976H538.259V152.192H576.755L575.891 152.864C576.147 149.088 575.571 145.76 574.163 142.88C572.755 140 570.707 137.76 568.019 136.16C565.395 134.496 562.259 133.664 558.611 133.664C554.771 133.664 551.379 134.528 548.435 136.256C545.555 137.92 543.283 140.256 541.619 143.264C540.019 146.208 539.219 149.664 539.219 153.632C539.219 157.728 540.051 161.312 541.715 164.384C543.443 167.456 545.843 169.856 548.915 171.584C551.987 173.312 555.571 174.176 559.667 174.176C562.739 174.176 565.555 173.6 568.115 172.448C570.739 171.296 572.947 169.568 574.739 167.264L576.755 169.28C574.771 171.648 572.243 173.536 569.171 174.944C566.163 176.288 562.867 176.96 559.283 176.96ZM625.235 176V149.6C625.235 144.8 623.859 140.928 621.107 137.984C618.355 135.04 614.675 133.568 610.067 133.568C606.931 133.568 604.147 134.272 601.715 135.68C599.347 137.024 597.459 138.88 596.051 141.248C594.707 143.616 594.035 146.368 594.035 149.504L592.019 148.352C592.019 145.024 592.819 142.048 594.419 139.424C596.083 136.8 598.291 134.72 601.043 133.184C603.859 131.648 607.027 130.88 610.547 130.88C614.067 130.88 617.139 131.68 619.763 133.28C622.451 134.88 624.531 137.088 626.003 139.904C627.475 142.72 628.211 145.952 628.211 149.6V176H625.235ZM591.059 176V131.84H594.035V176H591.059ZM655.293 176.96C652.925 176.96 650.685 176.64 648.573 176C646.525 175.296 644.669 174.368 643.005 173.216C641.341 172 639.869 170.624 638.589 169.088L640.605 166.976C642.525 169.472 644.733 171.328 647.229 172.544C649.725 173.696 652.445 174.272 655.389 174.272C659.037 174.272 661.949 173.504 664.125 171.968C666.301 170.368 667.389 168.192 667.389 165.44C667.389 163.008 666.749 161.088 665.469 159.68C664.253 158.272 662.653 157.184 660.669 156.416C658.685 155.648 656.573 154.944 654.333 154.304C652.157 153.664 650.077 152.928 648.093 152.096C646.109 151.2 644.477 149.984 643.197 148.448C641.981 146.848 641.373 144.704 641.373 142.016C641.373 139.84 641.949 137.92 643.101 136.256C644.253 134.592 645.885 133.28 647.997 132.32C650.109 131.36 652.605 130.88 655.485 130.88C658.621 130.88 661.501 131.456 664.125 132.608C666.749 133.696 668.797 135.296 670.269 137.408L668.253 139.424C666.973 137.632 665.181 136.224 662.877 135.2C660.573 134.112 658.013 133.568 655.197 133.568C651.613 133.568 648.893 134.368 647.037 135.968C645.181 137.568 644.253 139.552 644.253 141.92C644.253 144.16 644.861 145.92 646.077 147.2C647.357 148.48 648.989 149.472 650.973 150.176C652.957 150.88 655.037 151.552 657.213 152.192C659.453 152.768 661.565 153.536 663.549 154.496C665.533 155.392 667.133 156.672 668.349 158.336C669.629 159.936 670.269 162.176 670.269 165.056C670.269 168.704 668.893 171.616 666.141 173.792C663.453 175.904 659.837 176.96 655.293 176.96ZM682.652 176V131.84H685.628V176H682.652ZM684.092 120.8C683.26 120.8 682.556 120.48 681.98 119.84C681.404 119.2 681.116 118.464 681.116 117.632C681.116 116.736 681.404 116 681.98 115.424C682.556 114.848 683.26 114.56 684.092 114.56C684.988 114.56 685.724 114.848 686.3 115.424C686.94 116 687.26 116.736 687.26 117.632C687.26 118.464 686.94 119.2 686.3 119.84C685.724 120.48 684.988 120.8 684.092 120.8ZM720.993 176.96C716.705 176.96 712.833 175.936 709.377 173.888C705.985 171.84 703.265 169.056 701.217 165.536C699.233 162.016 698.241 158.08 698.241 153.728C698.241 149.44 699.233 145.568 701.217 142.112C703.265 138.656 705.985 135.936 709.377 133.952C712.833 131.904 716.705 130.88 720.993 130.88C725.217 130.88 729.025 131.904 732.417 133.952C735.873 135.936 738.593 138.656 740.577 142.112C742.625 145.568 743.649 149.44 743.649 153.728C743.649 158.144 742.625 162.112 740.577 165.632C738.593 169.088 735.873 171.84 732.417 173.888C729.025 175.936 725.217 176.96 720.993 176.96ZM720.993 174.176C724.705 174.176 728.033 173.28 730.977 171.488C733.921 169.696 736.257 167.264 737.985 164.192C739.713 161.056 740.577 157.536 740.577 153.632C740.577 149.856 739.713 146.464 737.985 143.456C736.257 140.448 733.921 138.08 730.977 136.352C728.033 134.56 724.705 133.664 720.993 133.664C717.281 133.664 713.921 134.56 710.913 136.352C707.969 138.08 705.633 140.448 703.905 143.456C702.177 146.464 701.313 149.888 701.313 153.728C701.313 157.632 702.177 161.12 703.905 164.192C705.633 167.264 707.969 169.696 710.913 171.488C713.921 173.28 717.281 174.176 720.993 174.176ZM790.328 176V149.6C790.328 144.8 788.952 140.928 786.2 137.984C783.448 135.04 779.768 133.568 775.16 133.568C772.024 133.568 769.24 134.272 766.808 135.68C764.44 137.024 762.552 138.88 761.144 141.248C759.8 143.616 759.128 146.368 759.128 149.504L757.112 148.352C757.112 145.024 757.912 142.048 759.512 139.424C761.176 136.8 763.384 134.72 766.136 133.184C768.952 131.648 772.12 130.88 775.64 130.88C779.16 130.88 782.232 131.68 784.856 133.28C787.544 134.88 789.624 137.088 791.096 139.904C792.568 142.72 793.304 145.952 793.304 149.6V176H790.328ZM756.152 176V131.84H759.128V176H756.152ZM832.72 176V173.12H853.936C859.696 173.12 864.784 171.84 869.2 169.28C873.68 166.72 877.168 163.232 879.664 158.816C882.16 154.336 883.408 149.216 883.408 143.456C883.408 137.76 882.16 132.704 879.664 128.288C877.168 123.808 873.68 120.32 869.2 117.824C864.784 115.264 859.696 113.984 853.936 113.984H833.104V111.104H853.936C858.736 111.104 863.12 111.904 867.088 113.504C871.056 115.104 874.512 117.344 877.456 120.224C880.4 123.104 882.672 126.528 884.272 130.496C885.872 134.464 886.672 138.816 886.672 143.552C886.672 148.224 885.872 152.544 884.272 156.512C882.672 160.48 880.4 163.936 877.456 166.88C874.576 169.76 871.152 172 867.184 173.6C863.216 175.2 858.864 176 854.128 176H832.72ZM831.664 176V111.104H834.736V176H831.664ZM900.715 176V131.84H903.691V176H900.715ZM902.155 120.8C901.323 120.8 900.619 120.48 900.043 119.84C899.467 119.2 899.179 118.464 899.179 117.632C899.179 116.736 899.467 116 900.043 115.424C900.619 114.848 901.323 114.56 902.155 114.56C903.051 114.56 903.787 114.848 904.363 115.424C905.003 116 905.323 116.736 905.323 117.632C905.323 118.464 905.003 119.2 904.363 119.84C903.787 120.48 903.051 120.8 902.155 120.8ZM937.328 195.776C933.104 195.776 929.264 194.976 925.808 193.376C922.352 191.776 919.568 189.472 917.456 186.464L919.28 184.64C921.008 187.136 923.44 189.152 926.576 190.688C929.712 192.224 933.328 192.992 937.424 192.992C943.568 192.992 948.432 191.296 952.016 187.904C955.664 184.576 957.488 180.064 957.488 174.368V163.136L958.352 152.768L957.488 142.688V131.84H960.464V174.368C960.464 178.656 959.504 182.4 957.584 185.6C955.664 188.8 952.944 191.296 949.424 193.088C945.968 194.88 941.936 195.776 937.328 195.776ZM938.768 176C934.48 176 930.64 175.04 927.248 173.12C923.92 171.136 921.264 168.448 919.28 165.056C917.36 161.664 916.4 157.792 916.4 153.44C916.4 149.152 917.36 145.312 919.28 141.92C921.2 138.528 923.824 135.84 927.152 133.856C930.544 131.872 934.352 130.88 938.576 130.88C941.968 130.88 945.04 131.52 947.792 132.8C950.608 134.016 952.944 135.776 954.8 138.08C956.72 140.384 958.032 143.136 958.736 146.336V160.64C957.968 163.776 956.624 166.496 954.704 168.8C952.848 171.104 950.544 172.896 947.792 174.176C945.104 175.392 942.096 176 938.768 176ZM939.152 173.216C942.8 173.216 946 172.416 948.752 170.816C951.568 169.152 953.744 166.848 955.28 163.904C956.816 160.896 957.584 157.408 957.584 153.44C957.584 149.536 956.784 146.112 955.184 143.168C953.648 140.224 951.472 137.92 948.656 136.256C945.904 134.528 942.672 133.664 938.96 133.664C935.184 133.664 931.824 134.528 928.88 136.256C925.936 137.92 923.632 140.224 921.968 143.168C920.304 146.112 919.472 149.504 919.472 153.344C919.472 157.184 920.304 160.608 921.968 163.616C923.696 166.624 926.032 168.992 928.976 170.72C931.92 172.384 935.312 173.216 939.152 173.216ZM975.715 176V131.84H978.691V176H975.715ZM977.155 120.8C976.323 120.8 975.619 120.48 975.043 119.84C974.467 119.2 974.179 118.464 974.179 117.632C974.179 116.736 974.467 116 975.043 115.424C975.619 114.848 976.323 114.56 977.155 114.56C978.051 114.56 978.787 114.848 979.363 115.424C980.003 116 980.323 116.736 980.323 117.632C980.323 118.464 980.003 119.2 979.363 119.84C978.787 120.48 978.051 120.8 977.155 120.8ZM1001.19 176V113.024H1004.17V176H1001.19ZM989.48 134.432V131.84H1015.78V134.432H989.48ZM1044.43 176.96C1040.08 176.96 1036.17 175.968 1032.72 173.984C1029.33 171.936 1026.64 169.184 1024.65 165.728C1022.67 162.272 1021.68 158.368 1021.68 154.016C1021.68 149.664 1022.67 145.76 1024.65 142.304C1026.64 138.784 1029.33 136 1032.72 133.952C1036.11 131.904 1039.95 130.88 1044.24 130.88C1047.63 130.88 1050.67 131.52 1053.36 132.8C1056.11 134.016 1058.38 135.776 1060.17 138.08C1062.03 140.384 1063.31 143.136 1064.01 146.336V161.408C1063.25 164.608 1061.93 167.392 1060.08 169.76C1058.29 172.064 1056.05 173.856 1053.36 175.136C1050.73 176.352 1047.76 176.96 1044.43 176.96ZM1044.81 174.176C1050.32 174.176 1054.7 172.352 1057.97 168.704C1061.23 164.992 1062.86 160.096 1062.86 154.016C1062.86 149.92 1062.09 146.368 1060.56 143.36C1059.09 140.288 1056.97 137.92 1054.22 136.256C1051.47 134.528 1048.27 133.664 1044.62 133.664C1040.78 133.664 1037.36 134.56 1034.35 136.352C1031.41 138.08 1029.07 140.48 1027.34 143.552C1025.61 146.56 1024.75 150.016 1024.75 153.92C1024.75 157.824 1025.61 161.312 1027.34 164.384C1029.07 167.392 1031.44 169.792 1034.45 171.584C1037.52 173.312 1040.97 174.176 1044.81 174.176ZM1062.77 176V164.192L1063.63 153.248L1062.77 142.592V131.84H1065.74V176H1062.77ZM1081.09 176V109.184H1084.07V176H1081.09ZM1119.72 176.96C1115.3 176.96 1111.34 175.968 1107.82 173.984C1104.36 171.936 1101.61 169.184 1099.56 165.728C1097.58 162.208 1096.58 158.24 1096.58 153.824C1096.58 149.472 1097.54 145.568 1099.46 142.112C1101.45 138.656 1104.14 135.936 1107.53 133.952C1110.98 131.904 1114.86 130.88 1119.14 130.88C1123.11 130.88 1126.6 131.776 1129.61 133.568C1132.68 135.296 1135.08 137.728 1136.81 140.864C1138.54 144 1139.4 147.616 1139.4 151.712C1139.4 151.968 1139.37 152.384 1139.3 152.96C1139.3 153.472 1139.24 154.144 1139.11 154.976H1098.7V152.192H1137.19L1136.33 152.864C1136.58 149.088 1136.01 145.76 1134.6 142.88C1133.19 140 1131.14 137.76 1128.46 136.16C1125.83 134.496 1122.7 133.664 1119.05 133.664C1115.21 133.664 1111.82 134.528 1108.87 136.256C1105.99 137.92 1103.72 140.256 1102.06 143.264C1100.46 146.208 1099.66 149.664 1099.66 153.632C1099.66 157.728 1100.49 161.312 1102.15 164.384C1103.88 167.456 1106.28 169.856 1109.35 171.584C1112.42 173.312 1116.01 174.176 1120.1 174.176C1123.18 174.176 1125.99 173.6 1128.55 172.448C1131.18 171.296 1133.38 169.568 1135.18 167.264L1137.19 169.28C1135.21 171.648 1132.68 173.536 1129.61 174.944C1126.6 176.288 1123.3 176.96 1119.72 176.96ZM392.055 297.96C387.447 297.96 383.159 297.128 379.191 295.464C375.223 293.736 371.767 291.336 368.823 288.264C365.879 285.192 363.575 281.64 361.911 277.608C360.311 273.512 359.511 269.128 359.511 264.456C359.511 259.72 360.311 255.336 361.911 251.304C363.511 247.272 365.751 243.752 368.631 240.744C371.575 237.736 374.999 235.4 378.903 233.736C382.807 232.008 387.031 231.144 391.575 231.144C396.247 231.144 400.599 232.04 404.631 233.832C408.663 235.624 412.151 238.12 415.095 241.32L412.887 243.528C410.327 240.584 407.191 238.28 403.479 236.616C399.831 234.952 395.863 234.12 391.575 234.12C387.479 234.12 383.671 234.888 380.151 236.424C376.695 237.96 373.655 240.104 371.031 242.856C368.407 245.608 366.359 248.84 364.887 252.552C363.479 256.2 362.775 260.168 362.775 264.456C362.775 268.744 363.511 272.744 364.983 276.456C366.455 280.168 368.471 283.432 371.031 286.248C373.655 289 376.727 291.144 380.247 292.68C383.831 294.216 387.671 294.984 391.767 294.984C396.119 294.984 400.151 294.152 403.863 292.488C407.639 290.76 410.807 288.424 413.367 285.48L415.575 287.688C412.695 290.888 409.239 293.416 405.207 295.272C401.175 297.064 396.791 297.96 392.055 297.96ZM446.071 297.96C441.783 297.96 437.911 296.936 434.455 294.888C431.063 292.84 428.343 290.056 426.295 286.536C424.311 283.016 423.319 279.08 423.319 274.728C423.319 270.44 424.311 266.568 426.295 263.112C428.343 259.656 431.063 256.936 434.455 254.952C437.911 252.904 441.783 251.88 446.071 251.88C450.295 251.88 454.103 252.904 457.495 254.952C460.951 256.936 463.671 259.656 465.655 263.112C467.703 266.568 468.727 270.44 468.727 274.728C468.727 279.144 467.703 283.112 465.655 286.632C463.671 290.088 460.951 292.84 457.495 294.888C454.103 296.936 450.295 297.96 446.071 297.96ZM446.071 295.176C449.783 295.176 453.111 294.28 456.055 292.488C458.999 290.696 461.335 288.264 463.063 285.192C464.791 282.056 465.655 278.536 465.655 274.632C465.655 270.856 464.791 267.464 463.063 264.456C461.335 261.448 458.999 259.08 456.055 257.352C453.111 255.56 449.783 254.664 446.071 254.664C442.359 254.664 438.999 255.56 435.991 257.352C433.047 259.08 430.711 261.448 428.983 264.456C427.255 267.464 426.391 270.888 426.391 274.728C426.391 278.632 427.255 282.12 428.983 285.192C430.711 288.264 433.047 290.696 435.991 292.488C438.999 294.28 442.359 295.176 446.071 295.176ZM481.23 297V252.84H484.206V297H481.23ZM512.718 297V269.16C512.718 264.808 511.438 261.288 508.878 258.6C506.318 255.912 503.022 254.568 498.99 254.568C496.302 254.568 493.838 255.176 491.598 256.392C489.358 257.608 487.566 259.304 486.222 261.48C484.878 263.592 484.206 266.088 484.206 268.968L482.19 268.872C482.19 265.48 482.926 262.504 484.398 259.944C485.934 257.384 487.982 255.4 490.542 253.992C493.166 252.584 496.078 251.88 499.278 251.88C502.414 251.88 505.198 252.584 507.63 253.992C510.126 255.4 512.078 257.384 513.486 259.944C514.958 262.504 515.694 265.512 515.694 268.968V297H512.718ZM544.206 297V269.16C544.206 264.808 542.926 261.288 540.366 258.6C537.806 255.912 534.51 254.568 530.478 254.568C527.79 254.568 525.326 255.176 523.086 256.392C520.846 257.608 519.054 259.304 517.71 261.48C516.366 263.592 515.694 266.088 515.694 268.968L513.678 268.872C513.678 265.416 514.446 262.44 515.982 259.944C517.518 257.384 519.566 255.4 522.126 253.992C524.75 252.584 527.63 251.88 530.766 251.88C533.902 251.88 536.686 252.584 539.118 253.992C541.614 255.4 543.566 257.416 544.974 260.04C546.446 262.6 547.182 265.608 547.182 269.064V297H544.206ZM561.574 297V252.84H564.55V297H561.574ZM593.062 297V269.16C593.062 264.808 591.782 261.288 589.222 258.6C586.662 255.912 583.366 254.568 579.334 254.568C576.646 254.568 574.182 255.176 571.942 256.392C569.702 257.608 567.91 259.304 566.566 261.48C565.222 263.592 564.55 266.088 564.55 268.968L562.534 268.872C562.534 265.48 563.27 262.504 564.742 259.944C566.278 257.384 568.326 255.4 570.886 253.992C573.51 252.584 576.422 251.88 579.622 251.88C582.758 251.88 585.542 252.584 587.974 253.992C590.47 255.4 592.422 257.384 593.83 259.944C595.302 262.504 596.038 265.512 596.038 268.968V297H593.062ZM624.55 297V269.16C624.55 264.808 623.27 261.288 620.71 258.6C618.15 255.912 614.854 254.568 610.822 254.568C608.134 254.568 605.67 255.176 603.43 256.392C601.19 257.608 599.398 259.304 598.054 261.48C596.71 263.592 596.038 266.088 596.038 268.968L594.022 268.872C594.022 265.416 594.79 262.44 596.326 259.944C597.862 257.384 599.91 255.4 602.47 253.992C605.094 252.584 607.974 251.88 611.11 251.88C614.246 251.88 617.03 252.584 619.462 253.992C621.958 255.4 623.91 257.416 625.318 260.04C626.79 262.6 627.526 265.608 627.526 269.064V297H624.55ZM662.174 297.96C657.758 297.96 653.79 296.968 650.27 294.984C646.814 292.936 644.062 290.184 642.014 286.728C640.03 283.208 639.038 279.24 639.038 274.824C639.038 270.472 639.998 266.568 641.918 263.112C643.902 259.656 646.59 256.936 649.982 254.952C653.438 252.904 657.31 251.88 661.598 251.88C665.566 251.88 669.054 252.776 672.062 254.568C675.134 256.296 677.534 258.728 679.262 261.864C680.99 265 681.854 268.616 681.854 272.712C681.854 272.968 681.822 273.384 681.758 273.96C681.758 274.472 681.694 275.144 681.566 275.976H641.15V273.192H679.646L678.782 273.864C679.038 270.088 678.462 266.76 677.054 263.88C675.646 261 673.598 258.76 670.91 257.16C668.286 255.496 665.15 254.664 661.502 254.664C657.662 254.664 654.27 255.528 651.326 257.256C648.446 258.92 646.174 261.256 644.51 264.264C642.91 267.208 642.11 270.664 642.11 274.632C642.11 278.728 642.942 282.312 644.606 285.384C646.334 288.456 648.734 290.856 651.806 292.584C654.878 294.312 658.462 295.176 662.558 295.176C665.63 295.176 668.446 294.6 671.006 293.448C673.63 292.296 675.838 290.568 677.63 288.264L679.646 290.28C677.662 292.648 675.134 294.536 672.062 295.944C669.054 297.288 665.758 297.96 662.174 297.96ZM728.125 297V270.6C728.125 265.8 726.749 261.928 723.997 258.984C721.245 256.04 717.565 254.568 712.957 254.568C709.821 254.568 707.037 255.272 704.605 256.68C702.237 258.024 700.349 259.88 698.941 262.248C697.597 264.616 696.925 267.368 696.925 270.504L694.909 269.352C694.909 266.024 695.709 263.048 697.309 260.424C698.973 257.8 701.181 255.72 703.933 254.184C706.749 252.648 709.917 251.88 713.437 251.88C716.957 251.88 720.029 252.68 722.653 254.28C725.341 255.88 727.421 258.088 728.893 260.904C730.365 263.72 731.101 266.952 731.101 270.6V297H728.125ZM693.949 297V252.84H696.925V297H693.949ZM765.384 297.96C761.096 297.96 757.224 296.936 753.768 294.888C750.376 292.84 747.656 290.056 745.608 286.536C743.624 283.016 742.632 279.08 742.632 274.728C742.632 270.44 743.624 266.568 745.608 263.112C747.656 259.656 750.376 256.936 753.768 254.952C757.224 252.904 761.096 251.88 765.384 251.88C768.584 251.88 771.56 252.488 774.312 253.704C777.128 254.856 779.528 256.488 781.512 258.6L779.496 260.616C777.768 258.76 775.688 257.32 773.256 256.296C770.824 255.208 768.2 254.664 765.384 254.664C761.672 254.664 758.312 255.56 755.304 257.352C752.36 259.08 750.024 261.448 748.296 264.456C746.568 267.464 745.704 270.888 745.704 274.728C745.704 278.632 746.568 282.12 748.296 285.192C750.024 288.264 752.36 290.696 755.304 292.488C758.312 294.28 761.672 295.176 765.384 295.176C768.264 295.176 770.92 294.664 773.352 293.64C775.848 292.552 777.992 291.048 779.784 289.128L781.8 291.144C779.752 293.32 777.288 295.016 774.408 296.232C771.592 297.384 768.584 297.96 765.384 297.96ZM812.549 297.96C808.133 297.96 804.165 296.968 800.645 294.984C797.189 292.936 794.437 290.184 792.389 286.728C790.405 283.208 789.413 279.24 789.413 274.824C789.413 270.472 790.373 266.568 792.293 263.112C794.277 259.656 796.965 256.936 800.357 254.952C803.813 252.904 807.685 251.88 811.973 251.88C815.941 251.88 819.429 252.776 822.437 254.568C825.509 256.296 827.909 258.728 829.637 261.864C831.365 265 832.229 268.616 832.229 272.712C832.229 272.968 832.197 273.384 832.133 273.96C832.133 274.472 832.069 275.144 831.941 275.976H791.525V273.192H830.021L829.157 273.864C829.413 270.088 828.837 266.76 827.429 263.88C826.021 261 823.973 258.76 821.285 257.16C818.661 255.496 815.525 254.664 811.877 254.664C808.037 254.664 804.645 255.528 801.701 257.256C798.821 258.92 796.549 261.256 794.885 264.264C793.285 267.208 792.485 270.664 792.485 274.632C792.485 278.728 793.317 282.312 794.981 285.384C796.709 288.456 799.109 290.856 802.181 292.584C805.253 294.312 808.837 295.176 812.933 295.176C816.005 295.176 818.821 294.6 821.381 293.448C824.005 292.296 826.213 290.568 828.005 288.264L830.021 290.28C828.037 292.648 825.509 294.536 822.437 295.944C819.429 297.288 816.133 297.96 812.549 297.96ZM868.273 297V232.104H871.345V297H868.273ZM908.446 297.96C904.158 297.96 900.286 296.936 896.83 294.888C893.438 292.84 890.718 290.056 888.67 286.536C886.686 283.016 885.694 279.08 885.694 274.728C885.694 270.44 886.686 266.568 888.67 263.112C890.718 259.656 893.438 256.936 896.83 254.952C900.286 252.904 904.158 251.88 908.446 251.88C911.646 251.88 914.622 252.488 917.374 253.704C920.19 254.856 922.59 256.488 924.574 258.6L922.558 260.616C920.83 258.76 918.75 257.32 916.318 256.296C913.886 255.208 911.262 254.664 908.446 254.664C904.734 254.664 901.374 255.56 898.366 257.352C895.422 259.08 893.086 261.448 891.358 264.456C889.63 267.464 888.766 270.888 888.766 274.728C888.766 278.632 889.63 282.12 891.358 285.192C893.086 288.264 895.422 290.696 898.366 292.488C901.374 294.28 904.734 295.176 908.446 295.176C911.326 295.176 913.982 294.664 916.414 293.64C918.91 292.552 921.054 291.048 922.846 289.128L924.862 291.144C922.814 293.32 920.35 295.016 917.47 296.232C914.654 297.384 911.646 297.96 908.446 297.96ZM936.105 297V252.84H939.081V297H936.105ZM937.545 241.8C936.713 241.8 936.009 241.48 935.433 240.84C934.857 240.2 934.569 239.464 934.569 238.632C934.569 237.736 934.857 237 935.433 236.424C936.009 235.848 936.713 235.56 937.545 235.56C938.441 235.56 939.177 235.848 939.753 236.424C940.393 237 940.713 237.736 940.713 238.632C940.713 239.464 940.393 240.2 939.753 240.84C939.177 241.48 938.441 241.8 937.545 241.8Z" fill="#9F6D21"/>
</svg>
