<svg width="1280" height="403" viewBox="0 0 1280 403" fill="none" xmlns="http://www.w3.org/2000/svg">
<rect x="-73.5889" width="1428.29" height="403" fill="#EDE3DA"/>
<path d="M265.163 176L291.563 111.104H294.443L320.651 176H317.291L292.235 113.792H293.675L268.427 176H265.163ZM276.203 154.592V151.808H309.707V154.592H276.203ZM349.509 176.96C345.221 176.96 341.349 175.936 337.893 173.888C334.501 171.84 331.781 169.056 329.733 165.536C327.749 162.016 326.757 158.08 326.757 153.728C326.757 149.44 327.749 145.568 329.733 142.112C331.781 138.656 334.501 135.936 337.893 133.952C341.349 131.904 345.221 130.88 349.509 130.88C352.709 130.88 355.685 131.488 358.437 132.704C361.253 133.856 363.653 135.488 365.637 137.6L363.621 139.616C361.893 137.76 359.813 136.32 357.381 135.296C354.949 134.208 352.325 133.664 349.509 133.664C345.797 133.664 342.437 134.56 339.429 136.352C336.485 138.08 334.149 140.448 332.421 143.456C330.693 146.464 329.829 149.888 329.829 153.728C329.829 157.632 330.693 161.12 332.421 164.192C334.149 167.264 336.485 169.696 339.429 171.488C342.437 173.28 345.797 174.176 349.509 174.176C352.389 174.176 355.045 173.664 357.477 172.64C359.973 171.552 362.117 170.048 363.909 168.128L365.925 170.144C363.877 172.32 361.413 174.016 358.533 175.232C355.717 176.384 352.709 176.96 349.509 176.96ZM396.29 176.96C392.002 176.96 388.13 175.936 384.674 173.888C381.282 171.84 378.562 169.056 376.514 165.536C374.53 162.016 373.538 158.08 373.538 153.728C373.538 149.44 374.53 145.568 376.514 142.112C378.562 138.656 381.282 135.936 384.674 133.952C388.13 131.904 392.002 130.88 396.29 130.88C399.49 130.88 402.466 131.488 405.218 132.704C408.034 133.856 410.434 135.488 412.418 137.6L410.402 139.616C408.674 137.76 406.594 136.32 404.162 135.296C401.73 134.208 399.106 133.664 396.29 133.664C392.578 133.664 389.218 134.56 386.21 136.352C383.266 138.08 380.93 140.448 379.202 143.456C377.474 146.464 376.61 149.888 376.61 153.728C376.61 157.632 377.474 161.12 379.202 164.192C380.93 167.264 383.266 169.696 386.21 171.488C389.218 173.28 392.578 174.176 396.29 174.176C399.17 174.176 401.826 173.664 404.258 172.64C406.754 171.552 408.898 170.048 410.69 168.128L412.706 170.144C410.658 172.32 408.194 174.016 405.314 175.232C402.498 176.384 399.49 176.96 396.29 176.96ZM443.071 176.96C438.783 176.96 434.911 175.936 431.455 173.888C428.063 171.84 425.343 169.056 423.295 165.536C421.311 162.016 420.319 158.08 420.319 153.728C420.319 149.44 421.311 145.568 423.295 142.112C425.343 138.656 428.063 135.936 431.455 133.952C434.911 131.904 438.783 130.88 443.071 130.88C447.295 130.88 451.103 131.904 454.495 133.952C457.951 135.936 460.671 138.656 462.655 142.112C464.703 145.568 465.727 149.44 465.727 153.728C465.727 158.144 464.703 162.112 462.655 165.632C460.671 169.088 457.951 171.84 454.495 173.888C451.103 175.936 447.295 176.96 443.071 176.96ZM443.071 174.176C446.783 174.176 450.111 173.28 453.055 171.488C455.999 169.696 458.335 167.264 460.063 164.192C461.791 161.056 462.655 157.536 462.655 153.632C462.655 149.856 461.791 146.464 460.063 143.456C458.335 140.448 455.999 138.08 453.055 136.352C450.111 134.56 446.783 133.664 443.071 133.664C439.359 133.664 435.999 134.56 432.991 136.352C430.047 138.08 427.711 140.448 425.983 143.456C424.255 146.464 423.391 149.888 423.391 153.728C423.391 157.632 424.255 161.12 425.983 164.192C427.711 167.264 430.047 169.696 432.991 171.488C435.999 173.28 439.359 174.176 443.071 174.176ZM478.23 176V131.84H481.206V176H478.23ZM509.718 176V148.16C509.718 143.808 508.438 140.288 505.878 137.6C503.318 134.912 500.022 133.568 495.99 133.568C493.302 133.568 490.838 134.176 488.598 135.392C486.358 136.608 484.566 138.304 483.222 140.48C481.878 142.592 481.206 145.088 481.206 147.968L479.19 147.872C479.19 144.48 479.926 141.504 481.398 138.944C482.934 136.384 484.982 134.4 487.542 132.992C490.166 131.584 493.078 130.88 496.278 130.88C499.414 130.88 502.198 131.584 504.63 132.992C507.126 134.4 509.078 136.384 510.486 138.944C511.958 141.504 512.694 144.512 512.694 147.968V176H509.718ZM541.206 176V148.16C541.206 143.808 539.926 140.288 537.366 137.6C534.806 134.912 531.51 133.568 527.478 133.568C524.79 133.568 522.326 134.176 520.086 135.392C517.846 136.608 516.054 138.304 514.71 140.48C513.366 142.592 512.694 145.088 512.694 147.968L510.678 147.872C510.678 144.416 511.446 141.44 512.982 138.944C514.518 136.384 516.566 134.4 519.126 132.992C521.75 131.584 524.63 130.88 527.766 130.88C530.902 130.88 533.686 131.584 536.118 132.992C538.614 134.4 540.566 136.416 541.974 139.04C543.446 141.6 544.182 144.608 544.182 148.064V176H541.206ZM580.558 176.96C577.23 176.96 574.158 176.32 571.342 175.04C568.59 173.76 566.222 171.968 564.238 169.664C562.318 167.296 560.974 164.544 560.206 161.408V146.336C560.974 143.072 562.35 140.288 564.334 137.984C566.318 135.68 568.718 133.92 571.534 132.704C574.35 131.488 577.358 130.88 580.558 130.88C584.782 130.88 588.526 131.904 591.79 133.952C595.118 135.936 597.742 138.688 599.662 142.208C601.582 145.664 602.542 149.6 602.542 154.016C602.542 158.368 601.582 162.272 599.662 165.728C597.806 169.184 595.214 171.936 591.886 173.984C588.558 175.968 584.782 176.96 580.558 176.96ZM579.982 174.176C583.822 174.176 587.182 173.312 590.062 171.584C593.006 169.856 595.31 167.456 596.974 164.384C598.638 161.312 599.47 157.824 599.47 153.92C599.47 149.952 598.638 146.464 596.974 143.456C595.31 140.384 593.038 137.984 590.158 136.256C587.278 134.528 583.982 133.664 580.27 133.664C576.558 133.664 573.294 134.528 570.478 136.256C567.662 137.984 565.454 140.384 563.854 143.456C562.254 146.464 561.454 149.984 561.454 154.016C561.454 157.92 562.222 161.408 563.758 164.48C565.358 167.488 567.534 169.856 570.286 171.584C573.102 173.312 576.334 174.176 579.982 174.176ZM558.574 194.816V131.84H561.55V142.592L560.59 153.248L561.55 164.192V194.816H558.574ZM634.977 176.96C630.625 176.96 626.721 175.968 623.265 173.984C619.873 171.936 617.185 169.184 615.201 165.728C613.217 162.272 612.225 158.368 612.225 154.016C612.225 149.664 613.217 145.76 615.201 142.304C617.185 138.784 619.873 136 623.265 133.952C626.657 131.904 630.497 130.88 634.785 130.88C638.177 130.88 641.217 131.52 643.905 132.8C646.657 134.016 648.929 135.776 650.721 138.08C652.577 140.384 653.857 143.136 654.561 146.336V161.408C653.793 164.608 652.481 167.392 650.625 169.76C648.833 172.064 646.593 173.856 643.905 175.136C641.281 176.352 638.305 176.96 634.977 176.96ZM635.361 174.176C640.865 174.176 645.249 172.352 648.513 168.704C651.777 164.992 653.409 160.096 653.409 154.016C653.409 149.92 652.641 146.368 651.105 143.36C649.633 140.288 647.521 137.92 644.769 136.256C642.017 134.528 638.817 133.664 635.169 133.664C631.329 133.664 627.905 134.56 624.897 136.352C621.953 138.08 619.617 140.48 617.889 143.552C616.161 146.56 615.297 150.016 615.297 153.92C615.297 157.824 616.161 161.312 617.889 164.384C619.617 167.392 621.985 169.792 624.993 171.584C628.065 173.312 631.521 174.176 635.361 174.176ZM653.313 176V164.192L654.177 153.248L653.313 142.592V131.84H656.289V176H653.313ZM689.781 195.776C685.557 195.776 681.717 194.976 678.261 193.376C674.805 191.776 672.021 189.472 669.909 186.464L671.733 184.64C673.461 187.136 675.893 189.152 679.029 190.688C682.165 192.224 685.781 192.992 689.877 192.992C696.021 192.992 700.885 191.296 704.469 187.904C708.117 184.576 709.941 180.064 709.941 174.368V163.136L710.805 152.768L709.941 142.688V131.84H712.917V174.368C712.917 178.656 711.957 182.4 710.037 185.6C708.117 188.8 705.397 191.296 701.877 193.088C698.421 194.88 694.389 195.776 689.781 195.776ZM691.221 176C686.933 176 683.093 175.04 679.701 173.12C676.373 171.136 673.717 168.448 671.733 165.056C669.813 161.664 668.853 157.792 668.853 153.44C668.853 149.152 669.813 145.312 671.733 141.92C673.653 138.528 676.277 135.84 679.605 133.856C682.997 131.872 686.805 130.88 691.029 130.88C694.421 130.88 697.493 131.52 700.245 132.8C703.061 134.016 705.397 135.776 707.253 138.08C709.173 140.384 710.485 143.136 711.189 146.336V160.64C710.421 163.776 709.077 166.496 707.157 168.8C705.301 171.104 702.997 172.896 700.245 174.176C697.557 175.392 694.549 176 691.221 176ZM691.605 173.216C695.253 173.216 698.453 172.416 701.205 170.816C704.021 169.152 706.197 166.848 707.733 163.904C709.269 160.896 710.037 157.408 710.037 153.44C710.037 149.536 709.237 146.112 707.637 143.168C706.101 140.224 703.925 137.92 701.109 136.256C698.357 134.528 695.125 133.664 691.413 133.664C687.637 133.664 684.277 134.528 681.333 136.256C678.389 137.92 676.085 140.224 674.421 143.168C672.757 146.112 671.925 149.504 671.925 153.344C671.925 157.184 672.757 160.608 674.421 163.616C676.149 166.624 678.485 168.992 681.429 170.72C684.373 172.384 687.765 173.216 691.605 173.216ZM762.344 176V149.6C762.344 144.8 760.968 140.928 758.216 137.984C755.464 135.04 751.784 133.568 747.176 133.568C744.04 133.568 741.256 134.272 738.824 135.68C736.456 137.024 734.568 138.88 733.16 141.248C731.816 143.616 731.144 146.368 731.144 149.504L729.128 148.352C729.128 145.024 729.928 142.048 731.528 139.424C733.192 136.8 735.4 134.72 738.152 133.184C740.968 131.648 744.136 130.88 747.656 130.88C751.176 130.88 754.248 131.68 756.872 133.28C759.56 134.88 761.64 137.088 763.112 139.904C764.584 142.72 765.32 145.952 765.32 149.6V176H762.344ZM728.168 176V131.84H731.144V176H728.168ZM799.986 176.96C795.57 176.96 791.602 175.968 788.082 173.984C784.626 171.936 781.874 169.184 779.826 165.728C777.842 162.208 776.85 158.24 776.85 153.824C776.85 149.472 777.81 145.568 779.73 142.112C781.714 138.656 784.402 135.936 787.794 133.952C791.25 131.904 795.122 130.88 799.41 130.88C803.378 130.88 806.866 131.776 809.874 133.568C812.946 135.296 815.346 137.728 817.074 140.864C818.802 144 819.666 147.616 819.666 151.712C819.666 151.968 819.634 152.384 819.57 152.96C819.57 153.472 819.506 154.144 819.378 154.976H778.962V152.192H817.458L816.594 152.864C816.85 149.088 816.274 145.76 814.866 142.88C813.458 140 811.41 137.76 808.722 136.16C806.098 134.496 802.962 133.664 799.314 133.664C795.474 133.664 792.082 134.528 789.138 136.256C786.258 137.92 783.986 140.256 782.322 143.264C780.722 146.208 779.922 149.664 779.922 153.632C779.922 157.728 780.754 161.312 782.418 164.384C784.146 167.456 786.546 169.856 789.618 171.584C792.69 173.312 796.274 174.176 800.37 174.176C803.442 174.176 806.258 173.6 808.818 172.448C811.442 171.296 813.65 169.568 815.442 167.264L817.458 169.28C815.474 171.648 812.946 173.536 809.874 174.944C806.866 176.288 803.57 176.96 799.986 176.96ZM831.762 176V131.84H834.738V176H831.762ZM863.25 176V148.16C863.25 143.808 861.97 140.288 859.41 137.6C856.85 134.912 853.554 133.568 849.522 133.568C846.834 133.568 844.37 134.176 842.13 135.392C839.89 136.608 838.098 138.304 836.754 140.48C835.41 142.592 834.738 145.088 834.738 147.968L832.722 147.872C832.722 144.48 833.458 141.504 834.93 138.944C836.466 136.384 838.514 134.4 841.074 132.992C843.698 131.584 846.61 130.88 849.81 130.88C852.946 130.88 855.73 131.584 858.162 132.992C860.658 134.4 862.61 136.384 864.018 138.944C865.49 141.504 866.226 144.512 866.226 147.968V176H863.25ZM894.738 176V148.16C894.738 143.808 893.458 140.288 890.898 137.6C888.338 134.912 885.042 133.568 881.01 133.568C878.322 133.568 875.858 134.176 873.618 135.392C871.378 136.608 869.586 138.304 868.242 140.48C866.898 142.592 866.226 145.088 866.226 147.968L864.21 147.872C864.21 144.416 864.978 141.44 866.514 138.944C868.05 136.384 870.098 134.4 872.658 132.992C875.282 131.584 878.162 130.88 881.298 130.88C884.434 130.88 887.218 131.584 889.65 132.992C892.146 134.4 894.098 136.416 895.506 139.04C896.978 141.6 897.714 144.608 897.714 148.064V176H894.738ZM932.361 176.96C927.945 176.96 923.977 175.968 920.457 173.984C917.001 171.936 914.249 169.184 912.201 165.728C910.217 162.208 909.225 158.24 909.225 153.824C909.225 149.472 910.185 145.568 912.105 142.112C914.089 138.656 916.777 135.936 920.169 133.952C923.625 131.904 927.497 130.88 931.785 130.88C935.753 130.88 939.241 131.776 942.249 133.568C945.321 135.296 947.721 137.728 949.449 140.864C951.177 144 952.041 147.616 952.041 151.712C952.041 151.968 952.009 152.384 951.945 152.96C951.945 153.472 951.881 154.144 951.753 154.976H911.337V152.192H949.833L948.969 152.864C949.225 149.088 948.649 145.76 947.241 142.88C945.833 140 943.785 137.76 941.097 136.16C938.473 134.496 935.337 133.664 931.689 133.664C927.849 133.664 924.457 134.528 921.513 136.256C918.633 137.92 916.361 140.256 914.697 143.264C913.097 146.208 912.297 149.664 912.297 153.632C912.297 157.728 913.129 161.312 914.793 164.384C916.521 167.456 918.921 169.856 921.993 171.584C925.065 173.312 928.649 174.176 932.745 174.176C935.817 174.176 938.633 173.6 941.193 172.448C943.817 171.296 946.025 169.568 947.817 167.264L949.833 169.28C947.849 171.648 945.321 173.536 942.249 174.944C939.241 176.288 935.945 176.96 932.361 176.96ZM998.313 176V149.6C998.313 144.8 996.937 140.928 994.185 137.984C991.433 135.04 987.753 133.568 983.145 133.568C980.009 133.568 977.225 134.272 974.793 135.68C972.425 137.024 970.537 138.88 969.129 141.248C967.785 143.616 967.113 146.368 967.113 149.504L965.097 148.352C965.097 145.024 965.897 142.048 967.497 139.424C969.161 136.8 971.369 134.72 974.121 133.184C976.937 131.648 980.105 130.88 983.625 130.88C987.145 130.88 990.217 131.68 992.841 133.28C995.529 134.88 997.609 137.088 999.081 139.904C1000.55 142.72 1001.29 145.952 1001.29 149.6V176H998.313ZM964.137 176V131.84H967.113V176H964.137ZM1022.14 176V113.024H1025.12V176H1022.14ZM1010.43 134.432V131.84H1036.74V134.432H1010.43ZM415.652 297.96C412.324 297.96 409.252 297.32 406.436 296.04C403.684 294.76 401.316 292.968 399.332 290.664C397.412 288.296 396.068 285.544 395.3 282.408V267.336C396.068 264.072 397.444 261.288 399.428 258.984C401.412 256.68 403.812 254.92 406.628 253.704C409.444 252.488 412.452 251.88 415.652 251.88C419.876 251.88 423.62 252.904 426.884 254.952C430.212 256.936 432.836 259.688 434.756 263.208C436.676 266.664 437.636 270.6 437.636 275.016C437.636 279.368 436.676 283.272 434.756 286.728C432.9 290.184 430.308 292.936 426.98 294.984C423.652 296.968 419.876 297.96 415.652 297.96ZM415.076 295.176C418.916 295.176 422.276 294.312 425.156 292.584C428.1 290.856 430.404 288.456 432.068 285.384C433.732 282.312 434.564 278.824 434.564 274.92C434.564 270.952 433.732 267.464 432.068 264.456C430.404 261.384 428.132 258.984 425.252 257.256C422.372 255.528 419.076 254.664 415.364 254.664C411.652 254.664 408.388 255.528 405.572 257.256C402.756 258.984 400.548 261.384 398.948 264.456C397.348 267.464 396.548 270.984 396.548 275.016C396.548 278.92 397.316 282.408 398.852 285.48C400.452 288.488 402.628 290.856 405.38 292.584C408.196 294.312 411.428 295.176 415.076 295.176ZM393.668 315.816V252.84H396.644V263.592L395.684 274.248L396.644 285.192V315.816H393.668ZM470.455 297.96C466.039 297.96 462.071 296.968 458.551 294.984C455.095 292.936 452.343 290.184 450.295 286.728C448.311 283.208 447.319 279.24 447.319 274.824C447.319 270.472 448.279 266.568 450.199 263.112C452.183 259.656 454.871 256.936 458.263 254.952C461.719 252.904 465.591 251.88 469.879 251.88C473.847 251.88 477.335 252.776 480.343 254.568C483.415 256.296 485.815 258.728 487.543 261.864C489.271 265 490.135 268.616 490.135 272.712C490.135 272.968 490.103 273.384 490.039 273.96C490.039 274.472 489.975 275.144 489.847 275.976H449.431V273.192H487.927L487.063 273.864C487.319 270.088 486.743 266.76 485.335 263.88C483.927 261 481.879 258.76 479.191 257.16C476.567 255.496 473.431 254.664 469.783 254.664C465.943 254.664 462.551 255.528 459.607 257.256C456.727 258.92 454.455 261.256 452.791 264.264C451.191 267.208 450.391 270.664 450.391 274.632C450.391 278.728 451.223 282.312 452.887 285.384C454.615 288.456 457.015 290.856 460.087 292.584C463.159 294.312 466.743 295.176 470.839 295.176C473.911 295.176 476.727 294.6 479.287 293.448C481.911 292.296 484.119 290.568 485.911 288.264L487.927 290.28C485.943 292.648 483.415 294.536 480.343 295.944C477.335 297.288 474.039 297.96 470.455 297.96ZM502.23 297V252.84H505.206V297H502.23ZM505.206 270.024L503.19 269.448C503.19 263.816 504.662 259.496 507.606 256.488C510.614 253.416 514.358 251.88 518.838 251.88C521.014 251.88 523.03 252.264 524.886 253.032C526.806 253.8 528.566 255.016 530.166 256.68L528.15 258.888C526.806 257.416 525.334 256.36 523.734 255.72C522.198 255.08 520.406 254.76 518.358 254.76C514.454 254.76 511.286 256.104 508.854 258.792C506.422 261.416 505.206 265.16 505.206 270.024ZM550.809 297.96C548.441 297.96 546.201 297.64 544.089 297C542.041 296.296 540.185 295.368 538.521 294.216C536.857 293 535.385 291.624 534.105 290.088L536.121 287.976C538.041 290.472 540.249 292.328 542.745 293.544C545.241 294.696 547.961 295.272 550.905 295.272C554.553 295.272 557.465 294.504 559.641 292.968C561.817 291.368 562.905 289.192 562.905 286.44C562.905 284.008 562.265 282.088 560.985 280.68C559.769 279.272 558.169 278.184 556.185 277.416C554.201 276.648 552.089 275.944 549.849 275.304C547.673 274.664 545.593 273.928 543.609 273.096C541.625 272.2 539.993 270.984 538.713 269.448C537.497 267.848 536.889 265.704 536.889 263.016C536.889 260.84 537.465 258.92 538.617 257.256C539.769 255.592 541.401 254.28 543.513 253.32C545.625 252.36 548.121 251.88 551.001 251.88C554.137 251.88 557.017 252.456 559.641 253.608C562.265 254.696 564.313 256.296 565.785 258.408L563.769 260.424C562.489 258.632 560.697 257.224 558.393 256.2C556.089 255.112 553.529 254.568 550.713 254.568C547.129 254.568 544.409 255.368 542.553 256.968C540.697 258.568 539.769 260.552 539.769 262.92C539.769 265.16 540.377 266.92 541.593 268.2C542.873 269.48 544.505 270.472 546.489 271.176C548.473 271.88 550.553 272.552 552.729 273.192C554.969 273.768 557.081 274.536 559.065 275.496C561.049 276.392 562.649 277.672 563.865 279.336C565.145 280.936 565.785 283.176 565.785 286.056C565.785 289.704 564.409 292.616 561.657 294.792C558.969 296.904 555.353 297.96 550.809 297.96ZM598.04 297.96C593.752 297.96 589.88 296.936 586.424 294.888C583.032 292.84 580.312 290.056 578.264 286.536C576.28 283.016 575.288 279.08 575.288 274.728C575.288 270.44 576.28 266.568 578.264 263.112C580.312 259.656 583.032 256.936 586.424 254.952C589.88 252.904 593.752 251.88 598.04 251.88C602.264 251.88 606.072 252.904 609.464 254.952C612.92 256.936 615.64 259.656 617.624 263.112C619.672 266.568 620.696 270.44 620.696 274.728C620.696 279.144 619.672 283.112 617.624 286.632C615.64 290.088 612.92 292.84 609.464 294.888C606.072 296.936 602.264 297.96 598.04 297.96ZM598.04 295.176C601.752 295.176 605.08 294.28 608.024 292.488C610.968 290.696 613.304 288.264 615.032 285.192C616.76 282.056 617.624 278.536 617.624 274.632C617.624 270.856 616.76 267.464 615.032 264.456C613.304 261.448 610.968 259.08 608.024 257.352C605.08 255.56 601.752 254.664 598.04 254.664C594.328 254.664 590.968 255.56 587.96 257.352C585.016 259.08 582.68 261.448 580.952 264.456C579.224 267.464 578.36 270.888 578.36 274.728C578.36 278.632 579.224 282.12 580.952 285.192C582.68 288.264 585.016 290.696 587.96 292.488C590.968 294.28 594.328 295.176 598.04 295.176ZM667.375 297V270.6C667.375 265.8 665.999 261.928 663.247 258.984C660.495 256.04 656.815 254.568 652.207 254.568C649.071 254.568 646.287 255.272 643.855 256.68C641.487 258.024 639.599 259.88 638.191 262.248C636.847 264.616 636.175 267.368 636.175 270.504L634.159 269.352C634.159 266.024 634.959 263.048 636.559 260.424C638.223 257.8 640.431 255.72 643.183 254.184C645.999 252.648 649.167 251.88 652.687 251.88C656.207 251.88 659.279 252.68 661.903 254.28C664.591 255.88 666.671 258.088 668.143 260.904C669.615 263.72 670.351 266.952 670.351 270.6V297H667.375ZM633.199 297V252.84H636.175V297H633.199ZM718.938 297V270.6C718.938 265.8 717.562 261.928 714.81 258.984C712.058 256.04 708.378 254.568 703.77 254.568C700.634 254.568 697.85 255.272 695.418 256.68C693.05 258.024 691.162 259.88 689.754 262.248C688.41 264.616 687.738 267.368 687.738 270.504L685.722 269.352C685.722 266.024 686.522 263.048 688.122 260.424C689.786 257.8 691.994 255.72 694.746 254.184C697.562 252.648 700.73 251.88 704.25 251.88C707.77 251.88 710.842 252.68 713.466 254.28C716.154 255.88 718.234 258.088 719.706 260.904C721.178 263.72 721.914 266.952 721.914 270.6V297H718.938ZM684.762 297V252.84H687.738V297H684.762ZM756.196 297.96C751.844 297.96 747.94 296.968 744.484 294.984C741.092 292.936 738.404 290.184 736.42 286.728C734.436 283.272 733.444 279.368 733.444 275.016C733.444 270.664 734.436 266.76 736.42 263.304C738.404 259.784 741.092 257 744.484 254.952C747.876 252.904 751.716 251.88 756.004 251.88C759.396 251.88 762.436 252.52 765.124 253.8C767.876 255.016 770.148 256.776 771.94 259.08C773.796 261.384 775.076 264.136 775.78 267.336V282.408C775.012 285.608 773.7 288.392 771.844 290.76C770.052 293.064 767.812 294.856 765.124 296.136C762.5 297.352 759.524 297.96 756.196 297.96ZM756.58 295.176C762.084 295.176 766.468 293.352 769.732 289.704C772.996 285.992 774.628 281.096 774.628 275.016C774.628 270.92 773.86 267.368 772.324 264.36C770.852 261.288 768.74 258.92 765.988 257.256C763.236 255.528 760.036 254.664 756.388 254.664C752.548 254.664 749.124 255.56 746.116 257.352C743.172 259.08 740.836 261.48 739.108 264.552C737.38 267.56 736.516 271.016 736.516 274.92C736.516 278.824 737.38 282.312 739.108 285.384C740.836 288.392 743.204 290.792 746.212 292.584C749.284 294.312 752.74 295.176 756.58 295.176ZM774.532 297V285.192L775.396 274.248L774.532 263.592V252.84H777.508V297H774.532ZM792.855 297V230.184H795.831V297H792.855ZM811.23 297V252.84H814.206V297H811.23ZM812.67 241.8C811.838 241.8 811.134 241.48 810.558 240.84C809.982 240.2 809.694 239.464 809.694 238.632C809.694 237.736 809.982 237 810.558 236.424C811.134 235.848 811.838 235.56 812.67 235.56C813.566 235.56 814.302 235.848 814.878 236.424C815.518 237 815.838 237.736 815.838 238.632C815.838 239.464 815.518 240.2 814.878 240.84C814.302 241.48 813.566 241.8 812.67 241.8ZM842.371 297.96C840.003 297.96 837.763 297.64 835.651 297C833.603 296.296 831.747 295.368 830.083 294.216C828.419 293 826.947 291.624 825.667 290.088L827.683 287.976C829.603 290.472 831.811 292.328 834.307 293.544C836.803 294.696 839.523 295.272 842.467 295.272C846.115 295.272 849.027 294.504 851.203 292.968C853.379 291.368 854.467 289.192 854.467 286.44C854.467 284.008 853.827 282.088 852.547 280.68C851.331 279.272 849.731 278.184 847.747 277.416C845.763 276.648 843.651 275.944 841.411 275.304C839.235 274.664 837.155 273.928 835.171 273.096C833.187 272.2 831.555 270.984 830.275 269.448C829.059 267.848 828.451 265.704 828.451 263.016C828.451 260.84 829.027 258.92 830.179 257.256C831.331 255.592 832.963 254.28 835.075 253.32C837.187 252.36 839.683 251.88 842.563 251.88C845.699 251.88 848.579 252.456 851.203 253.608C853.827 254.696 855.875 256.296 857.347 258.408L855.331 260.424C854.051 258.632 852.259 257.224 849.955 256.2C847.651 255.112 845.091 254.568 842.275 254.568C838.691 254.568 835.971 255.368 834.115 256.968C832.259 258.568 831.331 260.552 831.331 262.92C831.331 265.16 831.939 266.92 833.155 268.2C834.435 269.48 836.067 270.472 838.051 271.176C840.035 271.88 842.115 272.552 844.291 273.192C846.531 273.768 848.643 274.536 850.627 275.496C852.611 276.392 854.211 277.672 855.427 279.336C856.707 280.936 857.347 283.176 857.347 286.056C857.347 289.704 855.971 292.616 853.219 294.792C850.531 296.904 846.915 297.96 842.371 297.96ZM889.986 297.96C885.57 297.96 881.602 296.968 878.082 294.984C874.626 292.936 871.874 290.184 869.826 286.728C867.842 283.208 866.85 279.24 866.85 274.824C866.85 270.472 867.81 266.568 869.73 263.112C871.714 259.656 874.402 256.936 877.794 254.952C881.25 252.904 885.122 251.88 889.41 251.88C893.378 251.88 896.866 252.776 899.874 254.568C902.946 256.296 905.346 258.728 907.074 261.864C908.802 265 909.666 268.616 909.666 272.712C909.666 272.968 909.634 273.384 909.57 273.96C909.57 274.472 909.506 275.144 909.378 275.976H868.962V273.192H907.458L906.594 273.864C906.85 270.088 906.274 266.76 904.866 263.88C903.458 261 901.41 258.76 898.722 257.16C896.098 255.496 892.962 254.664 889.314 254.664C885.474 254.664 882.082 255.528 879.138 257.256C876.258 258.92 873.986 261.256 872.322 264.264C870.722 267.208 869.922 270.664 869.922 274.632C869.922 278.728 870.754 282.312 872.418 285.384C874.146 288.456 876.546 290.856 879.618 292.584C882.69 294.312 886.274 295.176 890.37 295.176C893.442 295.176 896.258 294.6 898.818 293.448C901.442 292.296 903.65 290.568 905.442 288.264L907.458 290.28C905.474 292.648 902.946 294.536 899.874 295.944C896.866 297.288 893.57 297.96 889.986 297.96ZM882.786 245.448L881.538 244.2L894.69 229.416L897.282 232.008L882.786 245.448Z" fill="#9F6D21"/>
</svg>
