<svg width="2338" height="85" viewBox="0 0 2338 85" fill="none" xmlns="http://www.w3.org/2000/svg">
<rect width="2338" height="85" fill="#EDE3DA"/>
<path d="M48.4794 55.32C46.8154 55.32 45.3647 55 44.1274 54.36C42.89 53.6987 41.834 52.8027 40.9594 51.672L41.6954 50.968C42.5914 52.184 43.6047 53.0587 44.7354 53.592C45.866 54.104 47.1354 54.36 48.5434 54.36C50.122 54.36 51.4127 53.976 52.4154 53.208C53.418 52.44 53.9194 51.3733 53.9194 50.008C53.9194 48.984 53.706 48.152 53.2794 47.512C52.874 46.8507 52.33 46.3173 51.6474 45.912C50.9647 45.5067 50.218 45.1547 49.4074 44.856C48.5967 44.536 47.786 44.2267 46.9754 43.928C46.1647 43.608 45.418 43.224 44.7354 42.776C44.0527 42.3067 43.498 41.72 43.0714 41.016C42.666 40.2907 42.4634 39.3733 42.4634 38.264C42.4634 37.2187 42.7087 36.312 43.1994 35.544C43.7114 34.7547 44.4154 34.1467 45.3114 33.72C46.2074 33.272 47.2527 33.048 48.4474 33.048C49.834 33.048 51.0714 33.3147 52.1594 33.848C53.2474 34.3813 54.1754 35.1493 54.9434 36.152L54.2074 36.856C53.482 35.9387 52.65 35.2347 51.7114 34.744C50.794 34.2533 49.706 34.008 48.4474 34.008C46.9967 34.008 45.8127 34.3813 44.8954 35.128C43.978 35.8747 43.5194 36.9093 43.5194 38.232C43.5194 39.192 43.722 39.9813 44.1274 40.6C44.554 41.1973 45.1087 41.6987 45.7914 42.104C46.474 42.488 47.2207 42.8293 48.0314 43.128C48.842 43.4053 49.6527 43.704 50.4634 44.024C51.274 44.344 52.0207 44.7387 52.7034 45.208C53.386 45.6773 53.93 46.2853 54.3354 47.032C54.762 47.7573 54.9754 48.6853 54.9754 49.816C54.9754 51.6293 54.3887 53.0053 53.2154 53.944C52.0634 54.8613 50.4847 55.32 48.4794 55.32ZM60.1836 55V33.368H61.2076V55H60.1836ZM60.7596 55V54.072H74.1036V55H60.7596ZM60.7596 44.344V43.448H73.1436V44.344H60.7596ZM60.7596 34.296V33.368H73.9116V34.296H60.7596ZM88.0016 55.32C86.487 55.32 85.079 55.0427 83.7776 54.488C82.4976 53.912 81.3776 53.112 80.4176 52.088C79.4576 51.064 78.711 49.88 78.1776 48.536C77.6443 47.1707 77.3776 45.7093 77.3776 44.152C77.3776 42.5733 77.6336 41.112 78.1456 39.768C78.679 38.424 79.4256 37.2507 80.3856 36.248C81.3456 35.2453 82.4656 34.4667 83.7456 33.912C85.0256 33.336 86.423 33.048 87.9376 33.048C89.4523 33.048 90.8496 33.336 92.1296 33.912C93.431 34.4667 94.551 35.2453 95.4896 36.248C96.4496 37.2507 97.1963 38.4347 97.7296 39.8C98.263 41.144 98.5296 42.6053 98.5296 44.184C98.5296 45.7413 98.263 47.2027 97.7296 48.568C97.2176 49.912 96.4816 51.096 95.5216 52.12C94.5616 53.1227 93.4416 53.912 92.1616 54.488C90.903 55.0427 89.5163 55.32 88.0016 55.32ZM87.9376 54.328C89.751 54.328 91.3723 53.88 92.8016 52.984C94.231 52.088 95.3616 50.872 96.1936 49.336C97.0256 47.8 97.4416 46.072 97.4416 44.152C97.4416 42.7227 97.1963 41.4 96.7056 40.184C96.2363 38.9467 95.575 37.8693 94.7216 36.952C93.8683 36.0347 92.8656 35.32 91.7136 34.808C90.5616 34.296 89.303 34.04 87.9376 34.04C86.1243 34.04 84.503 34.488 83.0736 35.384C81.6443 36.2587 80.5136 37.464 79.6816 39C78.871 40.5147 78.4656 42.232 78.4656 44.152C78.4656 45.5813 78.7003 46.9147 79.1696 48.152C79.6603 49.3893 80.3323 50.4773 81.1856 51.416C82.039 52.3333 83.0416 53.048 84.1936 53.56C85.3456 54.072 86.5936 54.328 87.9376 54.328Z" fill="#9F6D21"/>
<path d="M178.131 55L186.931 33.368H187.891L196.627 55H195.507L187.155 34.264H187.635L179.219 55H178.131ZM181.811 47.864V46.936H192.979V47.864H181.811ZM201.137 55V33.368H201.905L202.161 34.712V55H201.137ZM216.081 55L201.681 34.744L201.905 33.368L216.305 53.624L216.081 55ZM216.081 55L215.825 53.656V33.368H216.849V55H216.081ZM221.631 55L230.431 33.368H231.391L240.127 55H239.007L230.655 34.264H231.135L222.719 55H221.631ZM225.311 47.864V46.936H236.479V47.864H225.311ZM244.637 55V33.368H245.661V55H244.637ZM245.213 55V54.072H257.757V55H245.213ZM266.053 45.784L257.317 33.368H258.565L266.277 44.344H265.957L273.765 33.368H274.917L266.117 45.784H266.053ZM265.605 55V44.728H266.629V55H265.605ZM283.089 55.32C281.425 55.32 279.974 55 278.737 54.36C277.499 53.6987 276.443 52.8027 275.569 51.672L276.305 50.968C277.201 52.184 278.214 53.0587 279.345 53.592C280.475 54.104 281.745 54.36 283.153 54.36C284.731 54.36 286.022 53.976 287.025 53.208C288.027 52.44 288.529 51.3733 288.529 50.008C288.529 48.984 288.315 48.152 287.889 47.512C287.483 46.8507 286.939 46.3173 286.257 45.912C285.574 45.5067 284.827 45.1547 284.017 44.856C283.206 44.536 282.395 44.2267 281.585 43.928C280.774 43.608 280.027 43.224 279.345 42.776C278.662 42.3067 278.107 41.72 277.681 41.016C277.275 40.2907 277.073 39.3733 277.073 38.264C277.073 37.2187 277.318 36.312 277.809 35.544C278.321 34.7547 279.025 34.1467 279.921 33.72C280.817 33.272 281.862 33.048 283.057 33.048C284.443 33.048 285.681 33.3147 286.769 33.848C287.857 34.3813 288.785 35.1493 289.553 36.152L288.817 36.856C288.091 35.9387 287.259 35.2347 286.321 34.744C285.403 34.2533 284.315 34.008 283.057 34.008C281.606 34.008 280.422 34.3813 279.505 35.128C278.587 35.8747 278.129 36.9093 278.129 38.232C278.129 39.192 278.331 39.9813 278.737 40.6C279.163 41.1973 279.718 41.6987 280.401 42.104C281.083 42.488 281.83 42.8293 282.641 43.128C283.451 43.4053 284.262 43.704 285.073 44.024C285.883 44.344 286.63 44.7387 287.313 45.208C287.995 45.6773 288.539 46.2853 288.945 47.032C289.371 47.7573 289.585 48.6853 289.585 49.816C289.585 51.6293 288.998 53.0053 287.825 53.944C286.673 54.8613 285.094 55.32 283.089 55.32ZM294.793 55V33.368H295.817V55H294.793ZM295.369 55V54.072H308.713V55H295.369ZM295.369 44.344V43.448H307.753V44.344H295.369ZM295.369 34.296V33.368H308.521V34.296H295.369ZM321.333 55V54.04H328.405C330.325 54.04 332.021 53.6133 333.493 52.76C334.986 51.9067 336.149 50.744 336.981 49.272C337.813 47.7787 338.229 46.072 338.229 44.152C338.229 42.2533 337.813 40.568 336.981 39.096C336.149 37.6027 334.986 36.44 333.493 35.608C332.021 34.7547 330.325 34.328 328.405 34.328H321.461V33.368H328.405C330.005 33.368 331.466 33.6347 332.789 34.168C334.111 34.7013 335.263 35.448 336.245 36.408C337.226 37.368 337.983 38.5093 338.517 39.832C339.05 41.1547 339.317 42.6053 339.317 44.184C339.317 45.7413 339.05 47.1813 338.517 48.504C337.983 49.8267 337.226 50.9787 336.245 51.96C335.285 52.92 334.143 53.6667 332.821 54.2C331.498 54.7333 330.047 55 328.469 55H321.333ZM320.981 55V33.368H322.005V55H320.981ZM344.606 55V33.368H345.63V55H344.606ZM345.182 55V54.072H358.526V55H345.182ZM345.182 44.344V43.448H357.566V44.344H345.182ZM345.182 34.296V33.368H358.333V34.296H345.182ZM371.145 55V54.04H378.217C380.137 54.04 381.833 53.6133 383.305 52.76C384.798 51.9067 385.961 50.744 386.793 49.272C387.625 47.7787 388.041 46.072 388.041 44.152C388.041 42.2533 387.625 40.568 386.793 39.096C385.961 37.6027 384.798 36.44 383.305 35.608C381.833 34.7547 380.137 34.328 378.217 34.328H371.273V33.368H378.217C379.817 33.368 381.278 33.6347 382.601 34.168C383.924 34.7013 385.076 35.448 386.057 36.408C387.038 37.368 387.796 38.5093 388.329 39.832C388.862 41.1547 389.129 42.6053 389.129 44.184C389.129 45.7413 388.862 47.1813 388.329 48.504C387.796 49.8267 387.038 50.9787 386.057 51.96C385.097 52.92 383.956 53.6667 382.633 54.2C381.31 54.7333 379.86 55 378.281 55H371.145ZM370.793 55V33.368H371.817V55H370.793ZM403.986 55.32C402.471 55.32 401.063 55.0427 399.762 54.488C398.482 53.912 397.362 53.112 396.402 52.088C395.442 51.064 394.695 49.88 394.162 48.536C393.629 47.1707 393.362 45.7093 393.362 44.152C393.362 42.5733 393.618 41.112 394.13 39.768C394.663 38.424 395.41 37.2507 396.37 36.248C397.33 35.2453 398.45 34.4667 399.73 33.912C401.01 33.336 402.407 33.048 403.922 33.048C405.437 33.048 406.834 33.336 408.114 33.912C409.415 34.4667 410.535 35.2453 411.474 36.248C412.434 37.2507 413.181 38.4347 413.714 39.8C414.247 41.144 414.514 42.6053 414.514 44.184C414.514 45.7413 414.247 47.2027 413.714 48.568C413.202 49.912 412.466 51.096 411.506 52.12C410.546 53.1227 409.426 53.912 408.146 54.488C406.887 55.0427 405.501 55.32 403.986 55.32ZM403.922 54.328C405.735 54.328 407.357 53.88 408.786 52.984C410.215 52.088 411.346 50.872 412.178 49.336C413.01 47.8 413.426 46.072 413.426 44.152C413.426 42.7227 413.181 41.4 412.69 40.184C412.221 38.9467 411.559 37.8693 410.706 36.952C409.853 36.0347 408.85 35.32 407.698 34.808C406.546 34.296 405.287 34.04 403.922 34.04C402.109 34.04 400.487 34.488 399.058 35.384C397.629 36.2587 396.498 37.464 395.666 39C394.855 40.5147 394.45 42.232 394.45 44.152C394.45 45.5813 394.685 46.9147 395.154 48.152C395.645 49.3893 396.317 50.4773 397.17 51.416C398.023 52.3333 399.026 53.048 400.178 53.56C401.33 54.072 402.578 54.328 403.922 54.328ZM419.793 55V33.368H420.561L420.817 34.712V55H419.793ZM434.737 55L420.337 34.744L420.561 33.368L434.961 53.624L434.737 55ZM434.737 55L434.481 53.656V33.368H435.505V55H434.737ZM441.856 55V33.368H442.624L442.88 34.712V55H441.856ZM456.8 55L442.4 34.744L442.624 33.368L457.024 53.624L456.8 55ZM456.8 55L456.544 53.656V33.368H457.568V55H456.8ZM463.918 55V33.368H464.942V55H463.918ZM464.494 55V54.072H477.838V55H464.494ZM464.494 44.344V43.448H476.878V44.344H464.494ZM464.494 34.296V33.368H477.646V34.296H464.494ZM468.686 30.904L468.27 30.488L472.654 25.56L473.518 26.424L468.686 30.904ZM482.731 55V33.368H483.755V55H482.731ZM483.307 55V54.072H496.651V55H483.307ZM483.307 44.344V43.448H495.691V44.344H483.307ZM483.307 34.296V33.368H496.458V34.296H483.307ZM506.933 55.32C505.269 55.32 503.818 55 502.581 54.36C501.343 53.6987 500.287 52.8027 499.413 51.672L500.149 50.968C501.045 52.184 502.058 53.0587 503.189 53.592C504.319 54.104 505.589 54.36 506.997 54.36C508.575 54.36 509.866 53.976 510.869 53.208C511.871 52.44 512.373 51.3733 512.373 50.008C512.373 48.984 512.159 48.152 511.733 47.512C511.327 46.8507 510.783 46.3173 510.101 45.912C509.418 45.5067 508.671 45.1547 507.861 44.856C507.05 44.536 506.239 44.2267 505.429 43.928C504.618 43.608 503.871 43.224 503.189 42.776C502.506 42.3067 501.951 41.72 501.525 41.016C501.119 40.2907 500.917 39.3733 500.917 38.264C500.917 37.2187 501.162 36.312 501.653 35.544C502.165 34.7547 502.869 34.1467 503.765 33.72C504.661 33.272 505.706 33.048 506.901 33.048C508.287 33.048 509.525 33.3147 510.613 33.848C511.701 34.3813 512.629 35.1493 513.397 36.152L512.661 36.856C511.935 35.9387 511.103 35.2347 510.165 34.744C509.247 34.2533 508.159 34.008 506.901 34.008C505.45 34.008 504.266 34.3813 503.349 35.128C502.431 35.8747 501.973 36.9093 501.973 38.232C501.973 39.192 502.175 39.9813 502.581 40.6C503.007 41.1973 503.562 41.6987 504.245 42.104C504.927 42.488 505.674 42.8293 506.485 43.128C507.295 43.4053 508.106 43.704 508.917 44.024C509.727 44.344 510.474 44.7387 511.157 45.208C511.839 45.6773 512.383 46.2853 512.789 47.032C513.215 47.7573 513.429 48.6853 513.429 49.816C513.429 51.6293 512.842 53.0053 511.669 53.944C510.517 54.8613 508.938 55.32 506.933 55.32Z" fill="#9F6D21"/>
<path d="M602.101 55.32C600.565 55.32 599.135 55.0427 597.813 54.488C596.49 53.912 595.338 53.112 594.357 52.088C593.375 51.064 592.607 49.88 592.053 48.536C591.519 47.1707 591.253 45.7093 591.253 44.152C591.253 42.5733 591.519 41.112 592.053 39.768C592.586 38.424 593.333 37.2507 594.293 36.248C595.274 35.2453 596.415 34.4667 597.717 33.912C599.018 33.336 600.426 33.048 601.941 33.048C603.498 33.048 604.949 33.3467 606.293 33.944C607.637 34.5413 608.799 35.3733 609.781 36.44L609.045 37.176C608.191 36.1947 607.146 35.4267 605.909 34.872C604.693 34.3173 603.37 34.04 601.941 34.04C600.575 34.04 599.306 34.296 598.133 34.808C596.981 35.32 595.967 36.0347 595.093 36.952C594.218 37.8693 593.535 38.9467 593.045 40.184C592.575 41.4 592.341 42.7227 592.341 44.152C592.341 45.5813 592.586 46.9147 593.077 48.152C593.567 49.3893 594.239 50.4773 595.093 51.416C595.967 52.3333 596.991 53.048 598.165 53.56C599.359 54.072 600.639 54.328 602.005 54.328C603.455 54.328 604.799 54.0507 606.037 53.496C607.295 52.92 608.351 52.1413 609.205 51.16L609.941 51.896C608.981 52.9627 607.829 53.8053 606.485 54.424C605.141 55.0213 603.679 55.32 602.101 55.32ZM623.47 55.32C621.956 55.32 620.548 55.0427 619.246 54.488C617.966 53.912 616.846 53.112 615.886 52.088C614.926 51.064 614.18 49.88 613.646 48.536C613.113 47.1707 612.846 45.7093 612.846 44.152C612.846 42.5733 613.102 41.112 613.614 39.768C614.148 38.424 614.894 37.2507 615.854 36.248C616.814 35.2453 617.934 34.4667 619.214 33.912C620.494 33.336 621.892 33.048 623.406 33.048C624.921 33.048 626.318 33.336 627.598 33.912C628.9 34.4667 630.02 35.2453 630.958 36.248C631.918 37.2507 632.665 38.4347 633.198 39.8C633.732 41.144 633.998 42.6053 633.998 44.184C633.998 45.7413 633.732 47.2027 633.198 48.568C632.686 49.912 631.95 51.096 630.99 52.12C630.03 53.1227 628.91 53.912 627.63 54.488C626.372 55.0427 624.985 55.32 623.47 55.32ZM623.406 54.328C625.22 54.328 626.841 53.88 628.27 52.984C629.7 52.088 630.83 50.872 631.662 49.336C632.494 47.8 632.91 46.072 632.91 44.152C632.91 42.7227 632.665 41.4 632.174 40.184C631.705 38.9467 631.044 37.8693 630.19 36.952C629.337 36.0347 628.334 35.32 627.182 34.808C626.03 34.296 624.772 34.04 623.406 34.04C621.593 34.04 619.972 34.488 618.542 35.384C617.113 36.2587 615.982 37.464 615.15 39C614.34 40.5147 613.934 42.232 613.934 44.152C613.934 45.5813 614.169 46.9147 614.638 48.152C615.129 49.3893 615.801 50.4773 616.654 51.416C617.508 52.3333 618.51 53.048 619.662 53.56C620.814 54.072 622.062 54.328 623.406 54.328ZM639.277 55V33.368H640.045L640.301 34.712V55H639.277ZM654.221 55L639.821 34.744L640.045 33.368L654.445 53.624L654.221 55ZM654.221 55L653.965 53.656V33.368H654.989V55H654.221ZM667.964 55V33.976H668.988V55H667.964ZM659.74 34.296V33.368H677.212V34.296H659.74ZM681.934 55V33.368H682.958V55H681.934ZM682.51 55V54.072H695.854V55H682.51ZM682.51 44.344V43.448H694.894V44.344H682.51ZM682.51 34.296V33.368H695.662V34.296H682.51ZM700.746 55V33.368H701.514L701.77 34.712V55H700.746ZM715.69 55L701.29 34.744L701.514 33.368L715.914 53.624L715.69 55ZM715.69 55L715.434 53.656V33.368H716.458V55H715.69ZM730.233 55.32C728.761 55.32 727.438 54.9893 726.265 54.328C725.113 53.6667 724.195 52.76 723.513 51.608C722.851 50.456 722.521 49.1547 722.521 47.704V33.368H723.545V47.512C723.545 48.8987 723.833 50.104 724.409 51.128C725.006 52.152 725.806 52.9413 726.809 53.496C727.833 54.0507 728.974 54.328 730.233 54.328C731.513 54.328 732.654 54.0507 733.657 53.496C734.659 52.9413 735.449 52.152 736.025 51.128C736.622 50.104 736.921 48.9093 736.921 47.544V33.368H737.945V47.736C737.945 49.1867 737.603 50.488 736.921 51.64C736.259 52.7707 735.342 53.6667 734.169 54.328C733.017 54.9893 731.705 55.32 730.233 55.32ZM751.371 55V33.368H752.139L761.835 49.24H761.131L770.827 33.368H771.595V55H770.571V35.096L770.827 35.16L761.867 49.848H761.099L752.139 35.16L752.395 35.096V55H751.371ZM776.366 55L785.166 33.368H786.126L794.862 55H793.742L785.39 34.264H785.87L777.454 55H776.366ZM780.046 47.864V46.936H791.214V47.864H780.046ZM799.883 44.824V43.896H806.987C808.758 43.896 810.102 43.4587 811.019 42.584C811.936 41.688 812.395 40.5253 812.395 39.096C812.395 37.6453 811.936 36.4827 811.019 35.608C810.102 34.7333 808.758 34.296 806.987 34.296H799.883V33.368H806.827C808.256 33.368 809.462 33.6133 810.443 34.104C811.424 34.5733 812.171 35.2453 812.683 36.12C813.195 36.9733 813.451 37.9653 813.451 39.096C813.451 40.2267 813.195 41.2293 812.683 42.104C812.171 42.9573 811.424 43.6293 810.443 44.12C809.462 44.5893 808.256 44.824 806.827 44.824H799.883ZM799.371 55V33.368H800.395V55H799.371ZM813.707 55L805.035 44.376L806.155 44.184L815.083 55H813.707ZM833.677 55L819.981 43.736L833.389 33.368H834.957L821.101 44.056V43.384L835.277 55H833.677ZM819.309 55V33.368H820.333V55H819.309ZM839.434 55V33.368H840.458V55H839.434ZM840.01 55V54.072H853.354V55H840.01ZM840.01 44.344V43.448H852.394V44.344H840.01ZM840.01 34.296V33.368H853.162V34.296H840.01ZM863.839 55V33.976H864.863V55H863.839ZM855.615 34.296V33.368H873.087V34.296H855.615ZM877.809 55V33.368H878.833V55H877.809ZM885.184 55V33.368H885.952L886.208 34.712V55H885.184ZM900.128 55L885.728 34.744L885.952 33.368L900.352 53.624L900.128 55ZM900.128 55L899.872 53.656V33.368H900.896V55H900.128ZM917.07 55.288C915.491 55.288 914.03 55.0107 912.686 54.456C911.363 53.9013 910.211 53.1333 909.23 52.152C908.27 51.1493 907.523 49.976 906.99 48.632C906.457 47.2667 906.19 45.784 906.19 44.184C906.19 42.584 906.457 41.112 906.99 39.768C907.545 38.4027 908.313 37.2187 909.294 36.216C910.275 35.192 911.427 34.4027 912.75 33.848C914.073 33.2933 915.523 33.016 917.102 33.016C918.873 33.016 920.483 33.3787 921.934 34.104C923.385 34.808 924.558 35.8213 925.454 37.144L924.686 37.912C923.833 36.6533 922.755 35.6933 921.454 35.032C920.174 34.3493 918.723 34.008 917.102 34.008C915.203 34.008 913.507 34.456 912.014 35.352C910.542 36.2267 909.379 37.432 908.526 38.968C907.694 40.504 907.278 42.2533 907.278 44.216C907.278 46.1573 907.694 47.896 908.526 49.432C909.358 50.9467 910.499 52.1413 911.95 53.016C913.422 53.8693 915.107 54.296 917.006 54.296C918.798 54.296 920.355 53.912 921.678 53.144C923.001 52.376 924.025 51.2773 924.75 49.848C925.497 48.3973 925.881 46.68 925.902 44.696L926.286 45.016H916.622V44.088H926.958V44.28C926.958 46.584 926.553 48.5573 925.742 50.2C924.931 51.8427 923.779 53.1013 922.286 53.976C920.814 54.8507 919.075 55.288 917.07 55.288Z" fill="#9F6D21"/>
<path d="M1004.06 44.824V43.896H1011.16C1012.93 43.896 1014.27 43.4587 1015.19 42.584C1016.11 41.688 1016.57 40.5253 1016.57 39.096C1016.57 37.6453 1016.11 36.4827 1015.19 35.608C1014.27 34.7333 1012.93 34.296 1011.16 34.296H1004.06V33.368H1011C1012.43 33.368 1013.63 33.6133 1014.62 34.104C1015.6 34.5733 1016.34 35.2453 1016.86 36.12C1017.37 36.9733 1017.62 37.9653 1017.62 39.096C1017.62 40.2267 1017.37 41.2293 1016.86 42.104C1016.34 42.9573 1015.6 43.6293 1014.62 44.12C1013.63 44.5893 1012.43 44.824 1011 44.824H1004.06ZM1003.54 55V33.368H1004.57V55H1003.54ZM1017.88 55L1009.21 44.376L1010.33 44.184L1019.26 55H1017.88ZM1023.48 55V33.368H1024.5V55H1023.48ZM1024.06 55V54.072H1037.4V55H1024.06ZM1024.06 44.344V43.448H1036.44V44.344H1024.06ZM1024.06 34.296V33.368H1037.21V34.296H1024.06ZM1028.25 30.904L1027.83 30.488L1032.22 25.56L1033.08 26.424L1028.25 30.904ZM1047.68 55.32C1046.02 55.32 1044.57 55 1043.33 54.36C1042.09 53.6987 1041.04 52.8027 1040.16 51.672L1040.9 50.968C1041.79 52.184 1042.81 53.0587 1043.94 53.592C1045.07 54.104 1046.34 54.36 1047.75 54.36C1049.33 54.36 1050.62 53.976 1051.62 53.208C1052.62 52.44 1053.12 51.3733 1053.12 50.008C1053.12 48.984 1052.91 48.152 1052.48 47.512C1052.08 46.8507 1051.53 46.3173 1050.85 45.912C1050.17 45.5067 1049.42 45.1547 1048.61 44.856C1047.8 44.536 1046.99 44.2267 1046.18 43.928C1045.37 43.608 1044.62 43.224 1043.94 42.776C1043.26 42.3067 1042.7 41.72 1042.27 41.016C1041.87 40.2907 1041.67 39.3733 1041.67 38.264C1041.67 37.2187 1041.91 36.312 1042.4 35.544C1042.91 34.7547 1043.62 34.1467 1044.51 33.72C1045.41 33.272 1046.46 33.048 1047.65 33.048C1049.04 33.048 1050.27 33.3147 1051.36 33.848C1052.45 34.3813 1053.38 35.1493 1054.15 36.152L1053.41 36.856C1052.69 35.9387 1051.85 35.2347 1050.91 34.744C1050 34.2533 1048.91 34.008 1047.65 34.008C1046.2 34.008 1045.02 34.3813 1044.1 35.128C1043.18 35.8747 1042.72 36.9093 1042.72 38.232C1042.72 39.192 1042.93 39.9813 1043.33 40.6C1043.76 41.1973 1044.31 41.6987 1044.99 42.104C1045.68 42.488 1046.42 42.8293 1047.23 43.128C1048.05 43.4053 1048.86 43.704 1049.67 44.024C1050.48 44.344 1051.22 44.7387 1051.91 45.208C1052.59 45.6773 1053.13 46.2853 1053.54 47.032C1053.97 47.7573 1054.18 48.6853 1054.18 49.816C1054.18 51.6293 1053.59 53.0053 1052.42 53.944C1051.27 54.8613 1049.69 55.32 1047.68 55.32ZM1059.39 55V33.368H1060.41V55H1059.39ZM1059.96 55V54.072H1073.31V55H1059.96ZM1059.96 44.344V43.448H1072.35V44.344H1059.96ZM1059.96 34.296V33.368H1073.11V34.296H1059.96ZM1076.63 55L1085.43 33.368H1086.39L1095.13 55H1094.01L1085.66 34.264H1086.14L1077.72 55H1076.63ZM1080.31 47.864V46.936H1091.48V47.864H1080.31ZM1106.81 55.32C1105.34 55.32 1104.02 54.9893 1102.84 54.328C1101.69 53.6667 1100.77 52.76 1100.09 51.608C1099.43 50.456 1099.1 49.1547 1099.1 47.704V33.368H1100.12V47.512C1100.12 48.8987 1100.41 50.104 1100.99 51.128C1101.58 52.152 1102.38 52.9413 1103.39 53.496C1104.41 54.0507 1105.55 54.328 1106.81 54.328C1108.09 54.328 1109.23 54.0507 1110.23 53.496C1111.24 52.9413 1112.03 52.152 1112.6 51.128C1113.2 50.104 1113.5 48.9093 1113.5 47.544V33.368H1114.52V47.736C1114.52 49.1867 1114.18 50.488 1113.5 51.64C1112.84 52.7707 1111.92 53.6667 1110.75 54.328C1109.59 54.9893 1108.28 55.32 1106.81 55.32ZM1135.47 55L1127.44 44.28H1127.28L1118.76 33.368H1120.01L1127.76 43.384H1127.92L1136.75 55H1135.47ZM1118.41 55L1127.24 43.736L1127.82 44.408L1119.6 55H1118.41ZM1128.01 44.312L1127.5 43.576L1135.24 33.368H1136.43L1128.01 44.312ZM1154.81 55.32C1153.14 55.32 1151.69 55 1150.46 54.36C1149.22 53.6987 1148.16 52.8027 1147.29 51.672L1148.02 50.968C1148.92 52.184 1149.93 53.0587 1151.06 53.592C1152.19 54.104 1153.46 54.36 1154.87 54.36C1156.45 54.36 1157.74 53.976 1158.74 53.208C1159.75 52.44 1160.25 51.3733 1160.25 50.008C1160.25 48.984 1160.03 48.152 1159.61 47.512C1159.2 46.8507 1158.66 46.3173 1157.98 45.912C1157.29 45.5067 1156.55 45.1547 1155.74 44.856C1154.92 44.536 1154.11 44.2267 1153.3 43.928C1152.49 43.608 1151.75 43.224 1151.06 42.776C1150.38 42.3067 1149.83 41.72 1149.4 41.016C1148.99 40.2907 1148.79 39.3733 1148.79 38.264C1148.79 37.2187 1149.04 36.312 1149.53 35.544C1150.04 34.7547 1150.74 34.1467 1151.64 33.72C1152.54 33.272 1153.58 33.048 1154.78 33.048C1156.16 33.048 1157.4 33.3147 1158.49 33.848C1159.58 34.3813 1160.5 35.1493 1161.27 36.152L1160.54 36.856C1159.81 35.9387 1158.98 35.2347 1158.04 34.744C1157.12 34.2533 1156.03 34.008 1154.78 34.008C1153.32 34.008 1152.14 34.3813 1151.22 35.128C1150.31 35.8747 1149.85 36.9093 1149.85 38.232C1149.85 39.192 1150.05 39.9813 1150.46 40.6C1150.88 41.1973 1151.44 41.6987 1152.12 42.104C1152.8 42.488 1153.55 42.8293 1154.36 43.128C1155.17 43.4053 1155.98 43.704 1156.79 44.024C1157.6 44.344 1158.35 44.7387 1159.03 45.208C1159.71 45.6773 1160.26 46.2853 1160.66 47.032C1161.09 47.7573 1161.3 48.6853 1161.3 49.816C1161.3 51.6293 1160.72 53.0053 1159.54 53.944C1158.39 54.8613 1156.81 55.32 1154.81 55.32ZM1175.83 55.32C1174.32 55.32 1172.91 55.0427 1171.61 54.488C1170.33 53.912 1169.21 53.112 1168.25 52.088C1167.29 51.064 1166.54 49.88 1166.01 48.536C1165.47 47.1707 1165.21 45.7093 1165.21 44.152C1165.21 42.5733 1165.46 41.112 1165.97 39.768C1166.51 38.424 1167.25 37.2507 1168.21 36.248C1169.17 35.2453 1170.29 34.4667 1171.57 33.912C1172.85 33.336 1174.25 33.048 1175.77 33.048C1177.28 33.048 1178.68 33.336 1179.96 33.912C1181.26 34.4667 1182.38 35.2453 1183.32 36.248C1184.28 37.2507 1185.02 38.4347 1185.56 39.8C1186.09 41.144 1186.36 42.6053 1186.36 44.184C1186.36 45.7413 1186.09 47.2027 1185.56 48.568C1185.05 49.912 1184.31 51.096 1183.35 52.12C1182.39 53.1227 1181.27 53.912 1179.99 54.488C1178.73 55.0427 1177.34 55.32 1175.83 55.32ZM1175.77 54.328C1177.58 54.328 1179.2 53.88 1180.63 52.984C1182.06 52.088 1183.19 50.872 1184.02 49.336C1184.85 47.8 1185.27 46.072 1185.27 44.152C1185.27 42.7227 1185.02 41.4 1184.53 40.184C1184.06 38.9467 1183.4 37.8693 1182.55 36.952C1181.7 36.0347 1180.69 35.32 1179.54 34.808C1178.39 34.296 1177.13 34.04 1175.77 34.04C1173.95 34.04 1172.33 34.488 1170.9 35.384C1169.47 36.2587 1168.34 37.464 1167.51 39C1166.7 40.5147 1166.29 42.232 1166.29 44.152C1166.29 45.5813 1166.53 46.9147 1167 48.152C1167.49 49.3893 1168.16 50.4773 1169.01 51.416C1169.87 52.3333 1170.87 53.048 1172.02 53.56C1173.17 54.072 1174.42 54.328 1175.77 54.328ZM1201.43 55.32C1199.89 55.32 1198.46 55.0427 1197.14 54.488C1195.82 53.912 1194.67 53.112 1193.68 52.088C1192.7 51.064 1191.94 49.88 1191.38 48.536C1190.85 47.1707 1190.58 45.7093 1190.58 44.152C1190.58 42.5733 1190.85 41.112 1191.38 39.768C1191.91 38.424 1192.66 37.2507 1193.62 36.248C1194.6 35.2453 1195.74 34.4667 1197.04 33.912C1198.35 33.336 1199.75 33.048 1201.27 33.048C1202.83 33.048 1204.28 33.3467 1205.62 33.944C1206.96 34.5413 1208.13 35.3733 1209.11 36.44L1208.37 37.176C1207.52 36.1947 1206.47 35.4267 1205.24 34.872C1204.02 34.3173 1202.7 34.04 1201.27 34.04C1199.9 34.04 1198.63 34.296 1197.46 34.808C1196.31 35.32 1195.3 36.0347 1194.42 36.952C1193.55 37.8693 1192.86 38.9467 1192.37 40.184C1191.9 41.4 1191.67 42.7227 1191.67 44.152C1191.67 45.5813 1191.91 46.9147 1192.4 48.152C1192.9 49.3893 1193.57 50.4773 1194.42 51.416C1195.3 52.3333 1196.32 53.048 1197.49 53.56C1198.69 54.072 1199.97 54.328 1201.33 54.328C1202.78 54.328 1204.13 54.0507 1205.36 53.496C1206.62 52.92 1207.68 52.1413 1208.53 51.16L1209.27 51.896C1208.31 52.9627 1207.16 53.8053 1205.81 54.424C1204.47 55.0213 1203.01 55.32 1201.43 55.32ZM1214.14 55V33.368H1215.16V55H1214.14ZM1219.94 55L1228.74 33.368H1229.7L1238.44 55H1237.32L1228.97 34.264H1229.45L1221.03 55H1219.94ZM1223.62 47.864V46.936H1234.79V47.864H1223.62ZM1250.12 55.32C1248.65 55.32 1247.33 54.9893 1246.16 54.328C1245 53.6667 1244.09 52.76 1243.4 51.608C1242.74 50.456 1242.41 49.1547 1242.41 47.704V33.368H1243.44V47.512C1243.44 48.8987 1243.72 50.104 1244.3 51.128C1244.9 52.152 1245.7 52.9413 1246.7 53.496C1247.72 54.0507 1248.86 54.328 1250.12 54.328C1251.4 54.328 1252.54 54.0507 1253.55 53.496C1254.55 52.9413 1255.34 52.152 1255.92 51.128C1256.51 50.104 1256.81 48.9093 1256.81 47.544V33.368H1257.84V47.736C1257.84 49.1867 1257.49 50.488 1256.81 51.64C1256.15 52.7707 1255.23 53.6667 1254.06 54.328C1252.91 54.9893 1251.6 55.32 1250.12 55.32ZM1278.78 55L1270.75 44.28H1270.59L1262.08 33.368H1263.32L1271.07 43.384H1271.23L1280.06 55H1278.78ZM1261.72 55L1270.56 43.736L1271.13 44.408L1262.91 55H1261.72ZM1271.32 44.312L1270.81 43.576L1278.56 33.368H1279.74L1271.32 44.312Z" fill="#9F6D21"/>
<path d="M1355.5 55V33.368H1356.26L1365.96 49.24H1365.26L1374.95 33.368H1375.72V55H1374.7V35.096L1374.95 35.16L1365.99 49.848H1365.22L1356.26 35.16L1356.52 35.096V55H1355.5ZM1380.49 55L1389.29 33.368H1390.25L1398.99 55H1397.87L1389.51 34.264H1389.99L1381.58 55H1380.49ZM1384.17 47.864V46.936H1395.34V47.864H1384.17ZM1404.01 44.824V43.896H1411.11C1412.88 43.896 1414.23 43.4587 1415.14 42.584C1416.06 41.688 1416.52 40.5253 1416.52 39.096C1416.52 37.6453 1416.06 36.4827 1415.14 35.608C1414.23 34.7333 1412.88 34.296 1411.11 34.296H1404.01V33.368H1410.95C1412.38 33.368 1413.59 33.6133 1414.57 34.104C1415.55 34.5733 1416.3 35.2453 1416.81 36.12C1417.32 36.9733 1417.58 37.9653 1417.58 39.096C1417.58 40.2267 1417.32 41.2293 1416.81 42.104C1416.3 42.9573 1415.55 43.6293 1414.57 44.12C1413.59 44.5893 1412.38 44.824 1410.95 44.824H1404.01ZM1403.5 55V33.368H1404.52V55H1403.5ZM1417.83 55L1409.16 44.376L1410.28 44.184L1419.21 55H1417.83ZM1437.8 55L1424.11 43.736L1437.51 33.368H1439.08L1425.23 44.056V43.384L1439.4 55H1437.8ZM1423.43 55V33.368H1424.46V55H1423.43ZM1443.56 55V33.368H1444.58V55H1443.56ZM1444.13 55V54.072H1457.48V55H1444.13ZM1444.13 44.344V43.448H1456.52V44.344H1444.13ZM1444.13 34.296V33.368H1457.29V34.296H1444.13ZM1467.96 55V33.976H1468.99V55H1467.96ZM1459.74 34.296V33.368H1477.21V34.296H1459.74ZM1481.93 55V33.368H1482.96V55H1481.93ZM1489.31 55V33.368H1490.08L1490.33 34.712V55H1489.31ZM1504.25 55L1489.85 34.744L1490.08 33.368L1504.48 53.624L1504.25 55ZM1504.25 55L1504 53.656V33.368H1505.02V55H1504.25ZM1521.2 55.288C1519.62 55.288 1518.16 55.0107 1516.81 54.456C1515.49 53.9013 1514.34 53.1333 1513.36 52.152C1512.4 51.1493 1511.65 49.976 1511.12 48.632C1510.58 47.2667 1510.32 45.784 1510.32 44.184C1510.32 42.584 1510.58 41.112 1511.12 39.768C1511.67 38.4027 1512.44 37.2187 1513.42 36.216C1514.4 35.192 1515.55 34.4027 1516.88 33.848C1518.2 33.2933 1519.65 33.016 1521.23 33.016C1523 33.016 1524.61 33.3787 1526.06 34.104C1527.51 34.808 1528.68 35.8213 1529.58 37.144L1528.81 37.912C1527.96 36.6533 1526.88 35.6933 1525.58 35.032C1524.3 34.3493 1522.85 34.008 1521.23 34.008C1519.33 34.008 1517.63 34.456 1516.14 35.352C1514.67 36.2267 1513.5 37.432 1512.65 38.968C1511.82 40.504 1511.4 42.2533 1511.4 44.216C1511.4 46.1573 1511.82 47.896 1512.65 49.432C1513.48 50.9467 1514.62 52.1413 1516.08 53.016C1517.55 53.8693 1519.23 54.296 1521.13 54.296C1522.92 54.296 1524.48 53.912 1525.8 53.144C1527.13 52.376 1528.15 51.2773 1528.88 49.848C1529.62 48.3973 1530.01 46.68 1530.03 44.696L1530.41 45.016H1520.75V44.088H1531.08V44.28C1531.08 46.584 1530.68 48.5573 1529.87 50.2C1529.06 51.8427 1527.9 53.1013 1526.41 53.976C1524.94 54.8507 1523.2 55.288 1521.2 55.288ZM1543.88 55V54.04H1550.95C1552.87 54.04 1554.57 53.6133 1556.04 52.76C1557.53 51.9067 1558.7 50.744 1559.53 49.272C1560.36 47.7787 1560.78 46.072 1560.78 44.152C1560.78 42.2533 1560.36 40.568 1559.53 39.096C1558.7 37.6027 1557.53 36.44 1556.04 35.608C1554.57 34.7547 1552.87 34.328 1550.95 34.328H1544.01V33.368H1550.95C1552.55 33.368 1554.01 33.6347 1555.34 34.168C1556.66 34.7013 1557.81 35.448 1558.79 36.408C1559.77 37.368 1560.53 38.5093 1561.06 39.832C1561.6 41.1547 1561.86 42.6053 1561.86 44.184C1561.86 45.7413 1561.6 47.1813 1561.06 48.504C1560.53 49.8267 1559.77 50.9787 1558.79 51.96C1557.83 52.92 1556.69 53.6667 1555.37 54.2C1554.04 54.7333 1552.59 55 1551.02 55H1543.88ZM1543.53 55V33.368H1544.55V55H1543.53ZM1567.15 55V33.368H1568.18V55H1567.15ZM1584.35 55.288C1582.77 55.288 1581.31 55.0107 1579.97 54.456C1578.64 53.9013 1577.49 53.1333 1576.51 52.152C1575.55 51.1493 1574.8 49.976 1574.27 48.632C1573.74 47.2667 1573.47 45.784 1573.47 44.184C1573.47 42.584 1573.74 41.112 1574.27 39.768C1574.83 38.4027 1575.59 37.2187 1576.58 36.216C1577.56 35.192 1578.71 34.4027 1580.03 33.848C1581.35 33.2933 1582.8 33.016 1584.38 33.016C1586.15 33.016 1587.76 33.3787 1589.22 34.104C1590.67 34.808 1591.84 35.8213 1592.74 37.144L1591.97 37.912C1591.11 36.6533 1590.04 35.6933 1588.74 35.032C1587.46 34.3493 1586 34.008 1584.38 34.008C1582.48 34.008 1580.79 34.456 1579.3 35.352C1577.82 36.2267 1576.66 37.432 1575.81 38.968C1574.98 40.504 1574.56 42.2533 1574.56 44.216C1574.56 46.1573 1574.98 47.896 1575.81 49.432C1576.64 50.9467 1577.78 52.1413 1579.23 53.016C1580.7 53.8693 1582.39 54.296 1584.29 54.296C1586.08 54.296 1587.64 53.912 1588.96 53.144C1590.28 52.376 1591.31 51.2773 1592.03 49.848C1592.78 48.3973 1593.16 46.68 1593.18 44.696L1593.57 45.016H1583.9V44.088H1594.24V44.28C1594.24 46.584 1593.83 48.5573 1593.02 50.2C1592.21 51.8427 1591.06 53.1013 1589.57 53.976C1588.1 54.8507 1586.36 55.288 1584.35 55.288ZM1599.31 55V33.368H1600.33V55H1599.31ZM1613.31 55V33.976H1614.33V55H1613.31ZM1605.08 34.296V33.368H1622.56V34.296H1605.08ZM1621.99 55L1630.79 33.368H1631.75L1640.49 55H1639.37L1631.01 34.264H1631.49L1623.08 55H1621.99ZM1625.67 47.864V46.936H1636.84V47.864H1625.67ZM1645 55V33.368H1646.02V55H1645ZM1645.57 55V54.072H1658.12V55H1645.57Z" fill="#9F6D21"/>
<path d="M1744.9 55L1738.02 33.368H1739.11L1745.54 54.04H1745.06L1751.49 33.368H1752.49L1758.95 54.04H1758.44L1764.9 33.368H1765.99L1759.11 55H1758.21L1751.78 34.392H1752.2L1745.8 55H1744.9ZM1770.78 55V33.368H1771.8V55H1770.78ZM1771.35 55V54.072H1784.7V55H1771.35ZM1771.35 44.344V43.448H1783.74V44.344H1771.35ZM1771.35 34.296V33.368H1784.51V34.296H1771.35ZM1790.1 55V54.072H1797.62C1799.37 54.072 1800.77 53.6133 1801.81 52.696C1802.88 51.7787 1803.41 50.5627 1803.41 49.048C1803.41 48.0667 1803.18 47.2027 1802.71 46.456C1802.26 45.7093 1801.63 45.1227 1800.82 44.696C1800.01 44.2693 1799.07 44.056 1798.01 44.056H1790.1V43.192H1797.85C1799.25 43.192 1800.36 42.7973 1801.17 42.008C1801.98 41.1973 1802.39 40.1093 1802.39 38.744C1802.39 37.3573 1801.93 36.2693 1801.01 35.48C1800.1 34.6907 1798.87 34.296 1797.33 34.296H1790.1V33.368H1797.33C1798.57 33.368 1799.64 33.5813 1800.53 34.008C1801.45 34.4347 1802.16 35.0427 1802.65 35.832C1803.16 36.6213 1803.41 37.5707 1803.41 38.68C1803.41 39.96 1803.09 41.048 1802.45 41.944C1801.81 42.8187 1800.89 43.4373 1799.67 43.8L1799.83 43.416C1801.28 43.7573 1802.41 44.4293 1803.22 45.432C1804.05 46.4347 1804.47 47.64 1804.47 49.048C1804.47 50.2427 1804.18 51.288 1803.61 52.184C1803.03 53.08 1802.22 53.7733 1801.17 54.264C1800.13 54.7547 1798.89 55 1797.46 55H1790.1ZM1789.59 55V33.368H1790.61V55H1789.59ZM1817.38 55V54.04H1824.45C1826.37 54.04 1828.07 53.6133 1829.54 52.76C1831.03 51.9067 1832.2 50.744 1833.03 49.272C1833.86 47.7787 1834.28 46.072 1834.28 44.152C1834.28 42.2533 1833.86 40.568 1833.03 39.096C1832.2 37.6027 1831.03 36.44 1829.54 35.608C1828.07 34.7547 1826.37 34.328 1824.45 34.328H1817.51V33.368H1824.45C1826.05 33.368 1827.51 33.6347 1828.84 34.168C1830.16 34.7013 1831.31 35.448 1832.29 36.408C1833.27 37.368 1834.03 38.5093 1834.56 39.832C1835.1 41.1547 1835.36 42.6053 1835.36 44.184C1835.36 45.7413 1835.1 47.1813 1834.56 48.504C1834.03 49.8267 1833.27 50.9787 1832.29 51.96C1831.33 52.92 1830.19 53.6667 1828.87 54.2C1827.54 54.7333 1826.09 55 1824.52 55H1817.38ZM1817.03 55V33.368H1818.05V55H1817.03ZM1840.65 55V33.368H1841.68V55H1840.65ZM1841.23 55V54.072H1854.57V55H1841.23ZM1841.23 44.344V43.448H1853.61V44.344H1841.23ZM1841.23 34.296V33.368H1854.38V34.296H1841.23ZM1864.85 55.32C1863.19 55.32 1861.74 55 1860.5 54.36C1859.27 53.6987 1858.21 52.8027 1857.33 51.672L1858.07 50.968C1858.97 52.184 1859.98 53.0587 1861.11 53.592C1862.24 54.104 1863.51 54.36 1864.92 54.36C1866.5 54.36 1867.79 53.976 1868.79 53.208C1869.79 52.44 1870.29 51.3733 1870.29 50.008C1870.29 48.984 1870.08 48.152 1869.65 47.512C1869.25 46.8507 1868.71 46.3173 1868.02 45.912C1867.34 45.5067 1866.59 45.1547 1865.78 44.856C1864.97 44.536 1864.16 44.2267 1863.35 43.928C1862.54 43.608 1861.79 43.224 1861.11 42.776C1860.43 42.3067 1859.87 41.72 1859.45 41.016C1859.04 40.2907 1858.84 39.3733 1858.84 38.264C1858.84 37.2187 1859.08 36.312 1859.57 35.544C1860.09 34.7547 1860.79 34.1467 1861.69 33.72C1862.58 33.272 1863.63 33.048 1864.82 33.048C1866.21 33.048 1867.45 33.3147 1868.53 33.848C1869.62 34.3813 1870.55 35.1493 1871.32 36.152L1870.58 36.856C1869.86 35.9387 1869.03 35.2347 1868.09 34.744C1867.17 34.2533 1866.08 34.008 1864.82 34.008C1863.37 34.008 1862.19 34.3813 1861.27 35.128C1860.35 35.8747 1859.89 36.9093 1859.89 38.232C1859.89 39.192 1860.1 39.9813 1860.5 40.6C1860.93 41.1973 1861.48 41.6987 1862.17 42.104C1862.85 42.488 1863.6 42.8293 1864.41 43.128C1865.22 43.4053 1866.03 43.704 1866.84 44.024C1867.65 44.344 1868.4 44.7387 1869.08 45.208C1869.76 45.6773 1870.31 46.2853 1870.71 47.032C1871.14 47.7573 1871.35 48.6853 1871.35 49.816C1871.35 51.6293 1870.76 53.0053 1869.59 53.944C1868.44 54.8613 1866.86 55.32 1864.85 55.32ZM1876.56 55V33.368H1877.58V55H1876.56ZM1893.76 55.288C1892.18 55.288 1890.72 55.0107 1889.37 54.456C1888.05 53.9013 1886.9 53.1333 1885.92 52.152C1884.96 51.1493 1884.21 49.976 1883.68 48.632C1883.14 47.2667 1882.88 45.784 1882.88 44.184C1882.88 42.584 1883.14 41.112 1883.68 39.768C1884.23 38.4027 1885 37.2187 1885.98 36.216C1886.96 35.192 1888.11 34.4027 1889.44 33.848C1890.76 33.2933 1892.21 33.016 1893.79 33.016C1895.56 33.016 1897.17 33.3787 1898.62 34.104C1900.07 34.808 1901.25 35.8213 1902.14 37.144L1901.37 37.912C1900.52 36.6533 1899.44 35.6933 1898.14 35.032C1896.86 34.3493 1895.41 34.008 1893.79 34.008C1891.89 34.008 1890.19 34.456 1888.7 35.352C1887.23 36.2267 1886.07 37.432 1885.21 38.968C1884.38 40.504 1883.97 42.2533 1883.97 44.216C1883.97 46.1573 1884.38 47.896 1885.21 49.432C1886.05 50.9467 1887.19 52.1413 1888.64 53.016C1890.11 53.8693 1891.79 54.296 1893.69 54.296C1895.49 54.296 1897.04 53.912 1898.37 53.144C1899.69 52.376 1900.71 51.2773 1901.44 49.848C1902.18 48.3973 1902.57 46.68 1902.59 44.696L1902.97 45.016H1893.31V44.088H1903.65V44.28C1903.65 46.584 1903.24 48.5573 1902.43 50.2C1901.62 51.8427 1900.47 53.1013 1898.97 53.976C1897.5 54.8507 1895.76 55.288 1893.76 55.288ZM1908.71 55V33.368H1909.48L1909.74 34.712V55H1908.71ZM1923.66 55L1909.26 34.744L1909.48 33.368L1923.88 53.624L1923.66 55ZM1923.66 55L1923.4 53.656V33.368H1924.43V55H1923.66Z" fill="#9F6D21"/>
<path d="M2242.54 55.32C2240.88 55.32 2239.43 55 2238.19 54.36C2236.95 53.6987 2235.9 52.8027 2235.02 51.672L2235.76 50.968C2236.65 52.184 2237.67 53.0587 2238.8 53.592C2239.93 54.104 2241.2 54.36 2242.61 54.36C2244.18 54.36 2245.48 53.976 2246.48 53.208C2247.48 52.44 2247.98 51.3733 2247.98 50.008C2247.98 48.984 2247.77 48.152 2247.34 47.512C2246.94 46.8507 2246.39 46.3173 2245.71 45.912C2245.03 45.5067 2244.28 45.1547 2243.47 44.856C2242.66 44.536 2241.85 44.2267 2241.04 43.928C2240.23 43.608 2239.48 43.224 2238.8 42.776C2238.12 42.3067 2237.56 41.72 2237.13 41.016C2236.73 40.2907 2236.53 39.3733 2236.53 38.264C2236.53 37.2187 2236.77 36.312 2237.26 35.544C2237.77 34.7547 2238.48 34.1467 2239.37 33.72C2240.27 33.272 2241.32 33.048 2242.51 33.048C2243.9 33.048 2245.13 33.3147 2246.22 33.848C2247.31 34.3813 2248.24 35.1493 2249.01 36.152L2248.27 36.856C2247.54 35.9387 2246.71 35.2347 2245.77 34.744C2244.86 34.2533 2243.77 34.008 2242.51 34.008C2241.06 34.008 2239.88 34.3813 2238.96 35.128C2238.04 35.8747 2237.58 36.9093 2237.58 38.232C2237.58 39.192 2237.78 39.9813 2238.19 40.6C2238.62 41.1973 2239.17 41.6987 2239.85 42.104C2240.54 42.488 2241.28 42.8293 2242.09 43.128C2242.9 43.4053 2243.72 43.704 2244.53 44.024C2245.34 44.344 2246.08 44.7387 2246.77 45.208C2247.45 45.6773 2247.99 46.2853 2248.4 47.032C2248.82 47.7573 2249.04 48.6853 2249.04 49.816C2249.04 51.6293 2248.45 53.0053 2247.28 53.944C2246.13 54.8613 2244.55 55.32 2242.54 55.32ZM2254.25 55V33.368H2255.27V55H2254.25ZM2254.82 55V54.072H2268.17V55H2254.82ZM2254.82 44.344V43.448H2267.21V44.344H2254.82ZM2254.82 34.296V33.368H2267.97V34.296H2254.82ZM2271.49 55L2280.29 33.368H2281.25L2289.99 55H2288.87L2280.51 34.264H2280.99L2272.58 55H2271.49ZM2275.17 47.864V46.936H2286.34V47.864H2275.17Z" fill="#9F6D21"/>
<path d="M2016.67 55.32C2015 55.32 2013.55 55 2012.31 54.36C2011.08 53.6987 2010.02 52.8027 2009.15 51.672L2009.88 50.968C2010.78 52.184 2011.79 53.0587 2012.92 53.592C2014.05 54.104 2015.32 54.36 2016.73 54.36C2018.31 54.36 2019.6 53.976 2020.6 53.208C2021.61 52.44 2022.11 51.3733 2022.11 50.008C2022.11 48.984 2021.89 48.152 2021.47 47.512C2021.06 46.8507 2020.52 46.3173 2019.83 45.912C2019.15 45.5067 2018.41 45.1547 2017.59 44.856C2016.78 44.536 2015.97 44.2267 2015.16 43.928C2014.35 43.608 2013.61 43.224 2012.92 42.776C2012.24 42.3067 2011.69 41.72 2011.26 41.016C2010.85 40.2907 2010.65 39.3733 2010.65 38.264C2010.65 37.2187 2010.9 36.312 2011.39 35.544C2011.9 34.7547 2012.6 34.1467 2013.5 33.72C2014.39 33.272 2015.44 33.048 2016.63 33.048C2018.02 33.048 2019.26 33.3147 2020.35 33.848C2021.43 34.3813 2022.36 35.1493 2023.13 36.152L2022.39 36.856C2021.67 35.9387 2020.84 35.2347 2019.9 34.744C2018.98 34.2533 2017.89 34.008 2016.63 34.008C2015.18 34.008 2014 34.3813 2013.08 35.128C2012.17 35.8747 2011.71 36.9093 2011.71 38.232C2011.71 39.192 2011.91 39.9813 2012.31 40.6C2012.74 41.1973 2013.3 41.6987 2013.98 42.104C2014.66 42.488 2015.41 42.8293 2016.22 43.128C2017.03 43.4053 2017.84 43.704 2018.65 44.024C2019.46 44.344 2020.21 44.7387 2020.89 45.208C2021.57 45.6773 2022.12 46.2853 2022.52 47.032C2022.95 47.7573 2023.16 48.6853 2023.16 49.816C2023.16 51.6293 2022.58 53.0053 2021.4 53.944C2020.25 54.8613 2018.67 55.32 2016.67 55.32ZM2028.37 55V33.368H2029.4V55H2028.37ZM2042.37 55V33.976H2043.39V55H2042.37ZM2034.15 34.296V33.368H2051.62V34.296H2034.15ZM2056.34 55V33.368H2057.36V55H2056.34ZM2056.92 55V54.072H2070.26V55H2056.92ZM2056.92 44.344V43.448H2069.3V44.344H2056.92ZM2056.92 34.296V33.368H2070.07V34.296H2056.92ZM2087.87 55L2080.99 33.368H2082.08L2088.51 54.04H2088.03L2094.46 33.368H2095.46L2101.92 54.04H2101.41L2107.87 33.368H2108.96L2102.08 55H2101.18L2094.75 34.392H2095.17L2088.77 55H2087.87ZM2113.75 55V33.368H2114.77V55H2113.75ZM2114.32 55V54.072H2127.67V55H2114.32ZM2114.32 44.344V43.448H2126.71V44.344H2114.32ZM2114.32 34.296V33.368H2127.47V34.296H2114.32ZM2133.07 55V54.072H2140.59C2142.34 54.072 2143.74 53.6133 2144.78 52.696C2145.85 51.7787 2146.38 50.5627 2146.38 49.048C2146.38 48.0667 2146.15 47.2027 2145.68 46.456C2145.23 45.7093 2144.6 45.1227 2143.79 44.696C2142.98 44.2693 2142.04 44.056 2140.97 44.056H2133.07V43.192H2140.81C2142.22 43.192 2143.33 42.7973 2144.14 42.008C2144.95 41.1973 2145.36 40.1093 2145.36 38.744C2145.36 37.3573 2144.9 36.2693 2143.98 35.48C2143.07 34.6907 2141.84 34.296 2140.3 34.296H2133.07V33.368H2140.3C2141.54 33.368 2142.61 33.5813 2143.5 34.008C2144.42 34.4347 2145.12 35.0427 2145.61 35.832C2146.13 36.6213 2146.38 37.5707 2146.38 38.68C2146.38 39.96 2146.06 41.048 2145.42 41.944C2144.78 42.8187 2143.85 43.4373 2142.64 43.8L2142.8 43.416C2144.25 43.7573 2145.38 44.4293 2146.19 45.432C2147.02 46.4347 2147.44 47.64 2147.44 49.048C2147.44 50.2427 2147.15 51.288 2146.57 52.184C2146 53.08 2145.19 53.7733 2144.14 54.264C2143.1 54.7547 2141.86 55 2140.43 55H2133.07ZM2132.56 55V33.368H2133.58V55H2132.56Z" fill="#9F6D21"/>
</svg>
