<svg width="1280" height="403" viewBox="0 0 1280 403" fill="none" xmlns="http://www.w3.org/2000/svg">
<rect x="-62" width="1428.29" height="403" fill="#EDE3DA"/>
<path d="M253.461 176V111.104H255.765L256.533 115.136V176H253.461ZM298.293 176L255.093 115.232L255.765 111.104L298.965 171.872L298.293 176ZM298.293 176L297.525 171.968V111.104H300.597V176H298.293ZM337.696 176.96C333.408 176.96 329.536 175.936 326.08 173.888C322.688 171.84 319.968 169.056 317.92 165.536C315.936 162.016 314.944 158.08 314.944 153.728C314.944 149.44 315.936 145.568 317.92 142.112C319.968 138.656 322.688 135.936 326.08 133.952C329.536 131.904 333.408 130.88 337.696 130.88C341.92 130.88 345.728 131.904 349.12 133.952C352.576 135.936 355.296 138.656 357.28 142.112C359.328 145.568 360.352 149.44 360.352 153.728C360.352 158.144 359.328 162.112 357.28 165.632C355.296 169.088 352.576 171.84 349.12 173.888C345.728 175.936 341.92 176.96 337.696 176.96ZM337.696 174.176C341.408 174.176 344.736 173.28 347.68 171.488C350.624 169.696 352.96 167.264 354.688 164.192C356.416 161.056 357.28 157.536 357.28 153.632C357.28 149.856 356.416 146.464 354.688 143.456C352.96 140.448 350.624 138.08 347.68 136.352C344.736 134.56 341.408 133.664 337.696 133.664C333.984 133.664 330.624 134.56 327.616 136.352C324.672 138.08 322.336 140.448 320.608 143.456C318.88 146.464 318.016 149.888 318.016 153.728C318.016 157.632 318.88 161.12 320.608 164.192C322.336 167.264 324.672 169.696 327.616 171.488C330.624 173.28 333.984 174.176 337.696 174.176ZM377.988 176V113.024H380.964V176H377.988ZM366.276 134.432V131.84H392.58V134.432H366.276ZM403.23 176V131.84H406.206V176H403.23ZM406.206 149.024L404.19 148.448C404.19 142.816 405.662 138.496 408.606 135.488C411.614 132.416 415.358 130.88 419.838 130.88C422.014 130.88 424.03 131.264 425.886 132.032C427.806 132.8 429.566 134.016 431.166 135.68L429.15 137.888C427.806 136.416 426.334 135.36 424.734 134.72C423.198 134.08 421.406 133.76 419.358 133.76C415.454 133.76 412.286 135.104 409.854 137.792C407.422 140.416 406.206 144.16 406.206 149.024ZM458.643 176.96C454.227 176.96 450.259 175.968 446.739 173.984C443.283 171.936 440.531 169.184 438.483 165.728C436.499 162.208 435.507 158.24 435.507 153.824C435.507 149.472 436.467 145.568 438.387 142.112C440.371 138.656 443.059 135.936 446.451 133.952C449.907 131.904 453.779 130.88 458.067 130.88C462.035 130.88 465.523 131.776 468.531 133.568C471.603 135.296 474.003 137.728 475.731 140.864C477.459 144 478.323 147.616 478.323 151.712C478.323 151.968 478.291 152.384 478.227 152.96C478.227 153.472 478.163 154.144 478.035 154.976H437.619V152.192H476.115L475.251 152.864C475.507 149.088 474.931 145.76 473.523 142.88C472.115 140 470.067 137.76 467.379 136.16C464.755 134.496 461.619 133.664 457.971 133.664C454.131 133.664 450.739 134.528 447.795 136.256C444.915 137.92 442.643 140.256 440.979 143.264C439.379 146.208 438.579 149.664 438.579 153.632C438.579 157.728 439.411 161.312 441.075 164.384C442.803 167.456 445.203 169.856 448.275 171.584C451.347 173.312 454.931 174.176 459.027 174.176C462.099 174.176 464.915 173.6 467.475 172.448C470.099 171.296 472.307 169.568 474.099 167.264L476.115 169.28C474.131 171.648 471.603 173.536 468.531 174.944C465.523 176.288 462.227 176.96 458.643 176.96ZM532.415 176.96C528.127 176.96 524.255 175.936 520.799 173.888C517.407 171.84 514.687 169.056 512.639 165.536C510.655 162.016 509.663 158.08 509.663 153.728C509.663 149.44 510.655 145.568 512.639 142.112C514.687 138.656 517.407 135.936 520.799 133.952C524.255 131.904 528.127 130.88 532.415 130.88C535.615 130.88 538.591 131.488 541.343 132.704C544.159 133.856 546.559 135.488 548.543 137.6L546.527 139.616C544.799 137.76 542.719 136.32 540.287 135.296C537.855 134.208 535.231 133.664 532.415 133.664C528.703 133.664 525.343 134.56 522.335 136.352C519.391 138.08 517.055 140.448 515.327 143.456C513.599 146.464 512.735 149.888 512.735 153.728C512.735 157.632 513.599 161.12 515.327 164.192C517.055 167.264 519.391 169.696 522.335 171.488C525.343 173.28 528.703 174.176 532.415 174.176C535.295 174.176 537.951 173.664 540.383 172.64C542.879 171.552 545.023 170.048 546.815 168.128L548.831 170.144C546.783 172.32 544.319 174.016 541.439 175.232C538.623 176.384 535.615 176.96 532.415 176.96ZM579.196 176.96C574.844 176.96 570.94 175.968 567.484 173.984C564.092 171.936 561.404 169.184 559.42 165.728C557.436 162.272 556.444 158.368 556.444 154.016C556.444 149.664 557.436 145.76 559.42 142.304C561.404 138.784 564.092 136 567.484 133.952C570.876 131.904 574.716 130.88 579.004 130.88C582.396 130.88 585.436 131.52 588.124 132.8C590.876 134.016 593.148 135.776 594.94 138.08C596.796 140.384 598.076 143.136 598.78 146.336V161.408C598.012 164.608 596.7 167.392 594.844 169.76C593.052 172.064 590.812 173.856 588.124 175.136C585.5 176.352 582.524 176.96 579.196 176.96ZM579.58 174.176C585.084 174.176 589.468 172.352 592.732 168.704C595.996 164.992 597.628 160.096 597.628 154.016C597.628 149.92 596.86 146.368 595.324 143.36C593.852 140.288 591.74 137.92 588.988 136.256C586.236 134.528 583.036 133.664 579.388 133.664C575.548 133.664 572.124 134.56 569.116 136.352C566.172 138.08 563.836 140.48 562.108 143.552C560.38 146.56 559.516 150.016 559.516 153.92C559.516 157.824 560.38 161.312 562.108 164.384C563.836 167.392 566.204 169.792 569.212 171.584C572.284 173.312 575.74 174.176 579.58 174.176ZM597.532 176V164.192L598.396 153.248L597.532 142.592V131.84H600.508V176H597.532ZM622.113 176V113.024H625.089V176H622.113ZM610.401 134.432V131.84H636.705V134.432H610.401ZM665.352 176.96C661 176.96 657.096 175.968 653.64 173.984C650.248 171.936 647.56 169.184 645.576 165.728C643.592 162.272 642.6 158.368 642.6 154.016C642.6 149.664 643.592 145.76 645.576 142.304C647.56 138.784 650.248 136 653.64 133.952C657.032 131.904 660.872 130.88 665.16 130.88C668.552 130.88 671.592 131.52 674.28 132.8C677.032 134.016 679.304 135.776 681.096 138.08C682.952 140.384 684.232 143.136 684.936 146.336V161.408C684.168 164.608 682.856 167.392 681 169.76C679.208 172.064 676.968 173.856 674.28 175.136C671.656 176.352 668.68 176.96 665.352 176.96ZM665.736 174.176C671.24 174.176 675.624 172.352 678.888 168.704C682.152 164.992 683.784 160.096 683.784 154.016C683.784 149.92 683.016 146.368 681.48 143.36C680.008 140.288 677.896 137.92 675.144 136.256C672.392 134.528 669.192 133.664 665.544 133.664C661.704 133.664 658.28 134.56 655.272 136.352C652.328 138.08 649.992 140.48 648.264 143.552C646.536 146.56 645.672 150.016 645.672 153.92C645.672 157.824 646.536 161.312 648.264 164.384C649.992 167.392 652.36 169.792 655.368 171.584C658.44 173.312 661.896 174.176 665.736 174.176ZM683.688 176V164.192L684.552 153.248L683.688 142.592V131.84H686.664V176H683.688ZM702.012 176V109.184H704.988V176H702.012ZM740.259 176.96C735.971 176.96 732.099 175.936 728.643 173.888C725.251 171.84 722.531 169.056 720.483 165.536C718.499 162.016 717.507 158.08 717.507 153.728C717.507 149.44 718.499 145.568 720.483 142.112C722.531 138.656 725.251 135.936 728.643 133.952C732.099 131.904 735.971 130.88 740.259 130.88C744.483 130.88 748.291 131.904 751.683 133.952C755.139 135.936 757.859 138.656 759.843 142.112C761.891 145.568 762.915 149.44 762.915 153.728C762.915 158.144 761.891 162.112 759.843 165.632C757.859 169.088 755.139 171.84 751.683 173.888C748.291 175.936 744.483 176.96 740.259 176.96ZM740.259 174.176C743.971 174.176 747.299 173.28 750.243 171.488C753.187 169.696 755.523 167.264 757.251 164.192C758.979 161.056 759.843 157.536 759.843 153.632C759.843 149.856 758.979 146.464 757.251 143.456C755.523 140.448 753.187 138.08 750.243 136.352C747.299 134.56 743.971 133.664 740.259 133.664C736.547 133.664 733.187 134.56 730.179 136.352C727.235 138.08 724.899 140.448 723.171 143.456C721.443 146.464 720.579 149.888 720.579 153.728C720.579 157.632 721.443 161.12 723.171 164.192C724.899 167.264 727.235 169.696 730.179 171.488C733.187 173.28 736.547 174.176 740.259 174.176ZM793.562 195.776C789.338 195.776 785.498 194.976 782.042 193.376C778.586 191.776 775.802 189.472 773.69 186.464L775.514 184.64C777.242 187.136 779.674 189.152 782.81 190.688C785.946 192.224 789.562 192.992 793.658 192.992C799.802 192.992 804.666 191.296 808.25 187.904C811.898 184.576 813.722 180.064 813.722 174.368V163.136L814.586 152.768L813.722 142.688V131.84H816.698V174.368C816.698 178.656 815.738 182.4 813.818 185.6C811.898 188.8 809.178 191.296 805.658 193.088C802.202 194.88 798.17 195.776 793.562 195.776ZM795.002 176C790.714 176 786.874 175.04 783.482 173.12C780.154 171.136 777.498 168.448 775.514 165.056C773.594 161.664 772.634 157.792 772.634 153.44C772.634 149.152 773.594 145.312 775.514 141.92C777.434 138.528 780.058 135.84 783.386 133.856C786.778 131.872 790.586 130.88 794.81 130.88C798.202 130.88 801.274 131.52 804.026 132.8C806.842 134.016 809.178 135.776 811.034 138.08C812.954 140.384 814.266 143.136 814.97 146.336V160.64C814.202 163.776 812.858 166.496 810.938 168.8C809.082 171.104 806.778 172.896 804.026 174.176C801.338 175.392 798.33 176 795.002 176ZM795.386 173.216C799.034 173.216 802.234 172.416 804.986 170.816C807.802 169.152 809.978 166.848 811.514 163.904C813.05 160.896 813.818 157.408 813.818 153.44C813.818 149.536 813.018 146.112 811.418 143.168C809.882 140.224 807.706 137.92 804.89 136.256C802.138 134.528 798.906 133.664 795.194 133.664C791.418 133.664 788.058 134.528 785.114 136.256C782.17 137.92 779.866 140.224 778.202 143.168C776.538 146.112 775.706 149.504 775.706 153.344C775.706 157.184 776.538 160.608 778.202 163.616C779.93 166.624 782.266 168.992 785.21 170.72C788.154 172.384 791.546 173.216 795.386 173.216ZM848.845 176.96C845.389 176.96 842.285 176.16 839.533 174.56C836.845 172.896 834.733 170.624 833.197 167.744C831.661 164.8 830.893 161.408 830.893 157.568V131.84H833.869V157.472C833.869 160.736 834.477 163.648 835.693 166.208C836.973 168.704 838.733 170.688 840.973 172.16C843.277 173.568 845.901 174.272 848.845 174.272C853.325 174.272 856.941 172.704 859.693 169.568C862.445 166.432 863.821 162.4 863.821 157.472V131.84H866.797V157.568C866.797 161.344 866.029 164.704 864.493 167.648C862.957 170.592 860.845 172.896 858.157 174.56C855.469 176.16 852.365 176.96 848.845 176.96ZM901.33 176.96C896.914 176.96 892.946 175.968 889.426 173.984C885.97 171.936 883.218 169.184 881.17 165.728C879.186 162.208 878.194 158.24 878.194 153.824C878.194 149.472 879.154 145.568 881.074 142.112C883.058 138.656 885.746 135.936 889.138 133.952C892.594 131.904 896.466 130.88 900.754 130.88C904.722 130.88 908.21 131.776 911.218 133.568C914.29 135.296 916.69 137.728 918.418 140.864C920.146 144 921.01 147.616 921.01 151.712C921.01 151.968 920.978 152.384 920.914 152.96C920.914 153.472 920.85 154.144 920.722 154.976H880.306V152.192H918.802L917.938 152.864C918.194 149.088 917.618 145.76 916.21 142.88C914.802 140 912.754 137.76 910.066 136.16C907.442 134.496 904.306 133.664 900.658 133.664C896.818 133.664 893.426 134.528 890.482 136.256C887.602 137.92 885.33 140.256 883.666 143.264C882.066 146.208 881.266 149.664 881.266 153.632C881.266 157.728 882.098 161.312 883.762 164.384C885.49 167.456 887.89 169.856 890.962 171.584C894.034 173.312 897.618 174.176 901.714 174.176C904.786 174.176 907.602 173.6 910.162 172.448C912.786 171.296 914.994 169.568 916.786 167.264L918.802 169.28C916.818 171.648 914.29 173.536 911.218 174.944C908.21 176.288 904.914 176.96 901.33 176.96ZM974.43 176.96C970.206 176.96 966.43 175.968 963.102 173.984C959.838 171.936 957.246 169.184 955.326 165.728C953.406 162.272 952.446 158.368 952.446 154.016C952.446 149.6 953.406 145.664 955.326 142.208C957.246 138.688 959.87 135.936 963.198 133.952C966.526 131.904 970.27 130.88 974.43 130.88C977.63 130.88 980.638 131.488 983.454 132.704C986.27 133.92 988.67 135.68 990.654 137.984C992.702 140.288 994.078 143.072 994.782 146.336V161.408C994.014 164.544 992.638 167.296 990.654 169.664C988.734 171.968 986.366 173.76 983.55 175.04C980.798 176.32 977.758 176.96 974.43 176.96ZM975.006 174.176C978.654 174.176 981.854 173.312 984.606 171.584C987.422 169.856 989.598 167.488 991.134 164.48C992.734 161.408 993.534 157.92 993.534 154.016C993.534 149.984 992.734 146.464 991.134 143.456C989.534 140.384 987.326 137.984 984.51 136.256C981.694 134.528 978.43 133.664 974.718 133.664C971.006 133.664 967.71 134.528 964.83 136.256C961.95 137.984 959.678 140.384 958.014 143.456C956.35 146.464 955.518 149.952 955.518 153.92C955.518 157.824 956.35 161.312 958.014 164.384C959.678 167.456 961.982 169.856 964.926 171.584C967.87 173.312 971.23 174.176 975.006 174.176ZM996.414 176H993.438V164.192L994.398 153.248L993.438 142.592V109.184H996.414V176ZM1032.02 176.96C1027.6 176.96 1023.63 175.968 1020.11 173.984C1016.66 171.936 1013.91 169.184 1011.86 165.728C1009.87 162.208 1008.88 158.24 1008.88 153.824C1008.88 149.472 1009.84 145.568 1011.76 142.112C1013.75 138.656 1016.43 135.936 1019.83 133.952C1023.28 131.904 1027.15 130.88 1031.44 130.88C1035.41 130.88 1038.9 131.776 1041.91 133.568C1044.98 135.296 1047.38 137.728 1049.11 140.864C1050.83 144 1051.7 147.616 1051.7 151.712C1051.7 151.968 1051.67 152.384 1051.6 152.96C1051.6 153.472 1051.54 154.144 1051.41 154.976H1010.99V152.192H1049.49L1048.63 152.864C1048.88 149.088 1048.31 145.76 1046.9 142.88C1045.49 140 1043.44 137.76 1040.75 136.16C1038.13 134.496 1034.99 133.664 1031.35 133.664C1027.51 133.664 1024.11 134.528 1021.17 136.256C1018.29 137.92 1016.02 140.256 1014.35 143.264C1012.75 146.208 1011.95 149.664 1011.95 153.632C1011.95 157.728 1012.79 161.312 1014.45 164.384C1016.18 167.456 1018.58 169.856 1021.65 171.584C1024.72 173.312 1028.31 174.176 1032.4 174.176C1035.47 174.176 1038.29 173.6 1040.85 172.448C1043.47 171.296 1045.68 169.568 1047.47 167.264L1049.49 169.28C1047.51 171.648 1044.98 173.536 1041.91 174.944C1038.9 176.288 1035.6 176.96 1032.02 176.96ZM456.785 297V234.024H459.761V297H456.785ZM445.073 255.432V252.84H471.377V255.432H445.073ZM500.408 297.96C495.992 297.96 492.024 296.968 488.504 294.984C485.048 292.936 482.296 290.184 480.248 286.728C478.264 283.208 477.272 279.24 477.272 274.824C477.272 270.472 478.232 266.568 480.152 263.112C482.136 259.656 484.824 256.936 488.216 254.952C491.672 252.904 495.544 251.88 499.832 251.88C503.8 251.88 507.288 252.776 510.296 254.568C513.368 256.296 515.768 258.728 517.496 261.864C519.224 265 520.088 268.616 520.088 272.712C520.088 272.968 520.056 273.384 519.992 273.96C519.992 274.472 519.928 275.144 519.8 275.976H479.384V273.192H517.88L517.016 273.864C517.272 270.088 516.696 266.76 515.288 263.88C513.88 261 511.832 258.76 509.144 257.16C506.52 255.496 503.384 254.664 499.736 254.664C495.896 254.664 492.504 255.528 489.56 257.256C486.68 258.92 484.408 261.256 482.744 264.264C481.144 267.208 480.344 270.664 480.344 274.632C480.344 278.728 481.176 282.312 482.84 285.384C484.568 288.456 486.968 290.856 490.04 292.584C493.112 294.312 496.696 295.176 500.792 295.176C503.864 295.176 506.68 294.6 509.24 293.448C511.864 292.296 514.072 290.568 515.864 288.264L517.88 290.28C515.896 292.648 513.368 294.536 510.296 295.944C507.288 297.288 503.992 297.96 500.408 297.96ZM532.184 297V252.84H535.16V297H532.184ZM563.672 297V269.16C563.672 264.808 562.392 261.288 559.832 258.6C557.272 255.912 553.976 254.568 549.944 254.568C547.256 254.568 544.792 255.176 542.552 256.392C540.312 257.608 538.52 259.304 537.176 261.48C535.832 263.592 535.16 266.088 535.16 268.968L533.144 268.872C533.144 265.48 533.88 262.504 535.352 259.944C536.888 257.384 538.936 255.4 541.496 253.992C544.12 252.584 547.032 251.88 550.232 251.88C553.368 251.88 556.152 252.584 558.584 253.992C561.08 255.4 563.032 257.384 564.44 259.944C565.912 262.504 566.648 265.512 566.648 268.968V297H563.672ZM595.16 297V269.16C595.16 264.808 593.88 261.288 591.32 258.6C588.76 255.912 585.464 254.568 581.432 254.568C578.744 254.568 576.28 255.176 574.04 256.392C571.8 257.608 570.008 259.304 568.664 261.48C567.32 263.592 566.648 266.088 566.648 268.968L564.632 268.872C564.632 265.416 565.4 262.44 566.936 259.944C568.472 257.384 570.52 255.4 573.08 253.992C575.704 252.584 578.584 251.88 581.72 251.88C584.856 251.88 587.64 252.584 590.072 253.992C592.568 255.4 594.52 257.416 595.928 260.04C597.4 262.6 598.136 265.608 598.136 269.064V297H595.16ZM634.511 297.96C631.183 297.96 628.111 297.32 625.295 296.04C622.543 294.76 620.175 292.968 618.191 290.664C616.271 288.296 614.927 285.544 614.159 282.408V267.336C614.927 264.072 616.303 261.288 618.287 258.984C620.271 256.68 622.671 254.92 625.487 253.704C628.303 252.488 631.311 251.88 634.511 251.88C638.735 251.88 642.479 252.904 645.743 254.952C649.071 256.936 651.695 259.688 653.615 263.208C655.535 266.664 656.495 270.6 656.495 275.016C656.495 279.368 655.535 283.272 653.615 286.728C651.759 290.184 649.167 292.936 645.839 294.984C642.511 296.968 638.735 297.96 634.511 297.96ZM633.935 295.176C637.775 295.176 641.135 294.312 644.015 292.584C646.959 290.856 649.263 288.456 650.927 285.384C652.591 282.312 653.423 278.824 653.423 274.92C653.423 270.952 652.591 267.464 650.927 264.456C649.263 261.384 646.991 258.984 644.111 257.256C641.231 255.528 637.935 254.664 634.223 254.664C630.511 254.664 627.247 255.528 624.431 257.256C621.615 258.984 619.407 261.384 617.807 264.456C616.207 267.464 615.407 270.984 615.407 275.016C615.407 278.92 616.175 282.408 617.711 285.48C619.311 288.488 621.487 290.856 624.239 292.584C627.055 294.312 630.287 295.176 633.935 295.176ZM612.527 315.816V252.84H615.503V263.592L614.543 274.248L615.503 285.192V315.816H612.527ZM669.059 297V230.184H672.035V297H669.059ZM707.306 297.96C702.954 297.96 699.05 296.968 695.594 294.984C692.202 292.936 689.514 290.184 687.53 286.728C685.546 283.272 684.554 279.368 684.554 275.016C684.554 270.664 685.546 266.76 687.53 263.304C689.514 259.784 692.202 257 695.594 254.952C698.986 252.904 702.826 251.88 707.114 251.88C710.506 251.88 713.546 252.52 716.234 253.8C718.986 255.016 721.258 256.776 723.05 259.08C724.906 261.384 726.186 264.136 726.89 267.336V282.408C726.122 285.608 724.81 288.392 722.954 290.76C721.162 293.064 718.922 294.856 716.234 296.136C713.61 297.352 710.634 297.96 707.306 297.96ZM707.69 295.176C713.194 295.176 717.578 293.352 720.842 289.704C724.106 285.992 725.738 281.096 725.738 275.016C725.738 270.92 724.97 267.368 723.434 264.36C721.962 261.288 719.85 258.92 717.098 257.256C714.346 255.528 711.146 254.664 707.498 254.664C703.658 254.664 700.234 255.56 697.226 257.352C694.282 259.08 691.946 261.48 690.218 264.552C688.49 267.56 687.626 271.016 687.626 274.92C687.626 278.824 688.49 282.312 690.218 285.384C691.946 288.392 694.314 290.792 697.322 292.584C700.394 294.312 703.85 295.176 707.69 295.176ZM725.642 297V285.192L726.506 274.248L725.642 263.592V252.84H728.618V297H725.642ZM750.223 297V234.024H753.199V297H750.223ZM738.511 255.432V252.84H764.815V255.432H738.511ZM793.846 297.96C789.43 297.96 785.462 296.968 781.942 294.984C778.486 292.936 775.734 290.184 773.686 286.728C771.702 283.208 770.71 279.24 770.71 274.824C770.71 270.472 771.67 266.568 773.59 263.112C775.574 259.656 778.262 256.936 781.654 254.952C785.11 252.904 788.982 251.88 793.27 251.88C797.238 251.88 800.726 252.776 803.734 254.568C806.806 256.296 809.206 258.728 810.934 261.864C812.662 265 813.526 268.616 813.526 272.712C813.526 272.968 813.494 273.384 813.43 273.96C813.43 274.472 813.366 275.144 813.238 275.976H772.822V273.192H811.318L810.454 273.864C810.71 270.088 810.134 266.76 808.726 263.88C807.318 261 805.27 258.76 802.582 257.16C799.958 255.496 796.822 254.664 793.174 254.664C789.334 254.664 785.942 255.528 782.998 257.256C780.118 258.92 777.846 261.256 776.182 264.264C774.582 267.208 773.782 270.664 773.782 274.632C773.782 278.728 774.614 282.312 776.278 285.384C778.006 288.456 780.406 290.856 783.478 292.584C786.55 294.312 790.134 295.176 794.23 295.176C797.302 295.176 800.118 294.6 802.678 293.448C805.302 292.296 807.51 290.568 809.302 288.264L811.318 290.28C809.334 292.648 806.806 294.536 803.734 295.944C800.726 297.288 797.43 297.96 793.846 297.96ZM838.293 297.96C835.925 297.96 833.685 297.64 831.573 297C829.525 296.296 827.669 295.368 826.005 294.216C824.341 293 822.869 291.624 821.589 290.088L823.605 287.976C825.525 290.472 827.733 292.328 830.229 293.544C832.725 294.696 835.445 295.272 838.389 295.272C842.037 295.272 844.949 294.504 847.125 292.968C849.301 291.368 850.389 289.192 850.389 286.44C850.389 284.008 849.749 282.088 848.469 280.68C847.253 279.272 845.653 278.184 843.669 277.416C841.685 276.648 839.573 275.944 837.333 275.304C835.157 274.664 833.077 273.928 831.093 273.096C829.109 272.2 827.477 270.984 826.197 269.448C824.981 267.848 824.373 265.704 824.373 263.016C824.373 260.84 824.949 258.92 826.101 257.256C827.253 255.592 828.885 254.28 830.997 253.32C833.109 252.36 835.605 251.88 838.485 251.88C841.621 251.88 844.501 252.456 847.125 253.608C849.749 254.696 851.797 256.296 853.269 258.408L851.253 260.424C849.973 258.632 848.181 257.224 845.877 256.2C843.573 255.112 841.013 254.568 838.197 254.568C834.613 254.568 831.893 255.368 830.037 256.968C828.181 258.568 827.253 260.552 827.253 262.92C827.253 265.16 827.861 266.92 829.077 268.2C830.357 269.48 831.989 270.472 833.973 271.176C835.957 271.88 838.037 272.552 840.213 273.192C842.453 273.768 844.565 274.536 846.549 275.496C848.533 276.392 850.133 277.672 851.349 279.336C852.629 280.936 853.269 283.176 853.269 286.056C853.269 289.704 851.893 292.616 849.141 294.792C846.453 296.904 842.837 297.96 838.293 297.96Z" fill="#9F6D21"/>
</svg>
