<svg xmlns="http://www.w3.org/2000/svg" xmlns:xlink="http://www.w3.org/1999/xlink" width="500" zoomAndPan="magnify" viewBox="0 0 375 374.999991" height="500" preserveAspectRatio="xMidYMid meet" version="1.0"><defs><g/><clipPath id="87dd0e5914"><path d="M 155 116 L 216 116 L 216 196 L 155 196 Z M 155 116 " clip-rule="nonzero"/></clipPath><clipPath id="91d3c1fef4"><path d="M 161.332031 114.625 L 219.28125 118.621094 L 213.6875 199.707031 L 155.738281 195.707031 Z M 161.332031 114.625 " clip-rule="nonzero"/></clipPath><clipPath id="331d1424ae"><path d="M 155.882812 195.089844 C 157.207031 184.234375 158.359375 179.242188 159.558594 174.371094 C 160.9375 168.585938 162.625 162.480469 164.597656 155.644531 C 167.011719 147.34375 170.835938 134.527344 173.058594 128.167969 C 174.21875 124.734375 175.007812 122.484375 176.078125 120.308594 C 176.882812 118.695312 177.605469 116.554688 178.5 116.15625 C 179.03125 115.960938 179.714844 116.066406 180.199219 116.5625 C 181.652344 118.042969 182.113281 124.703125 182.953125 130.117188 C 184.125 138.152344 185.332031 151.542969 185.953125 160.113281 C 186.375 166.539062 187.410156 174.90625 186.628906 177.042969 C 186.417969 177.605469 186.171875 177.820312 185.753906 178.019531 C 185.273438 178.277344 184.410156 178.273438 183.605469 178.277344 C 182.566406 178.261719 181.539062 178.132812 180.183594 177.75 C 178.03125 177.199219 174.433594 175.914062 172.261719 174.84375 C 170.589844 173.976562 168.578125 173.089844 168.0625 172.191406 C 167.753906 171.652344 167.804688 170.960938 168.058594 170.578125 C 168.503906 169.972656 169.5 169.753906 170.796875 169.324219 C 173.859375 168.382812 181.144531 167.160156 186.613281 166.382812 C 192.550781 165.523438 199.964844 164.941406 205.230469 164.613281 C 209.105469 164.421875 214.09375 163.957031 215.382812 164.449219 C 215.773438 164.648438 215.988281 164.894531 215.976562 165.066406 C 215.90625 165.234375 215.074219 165.582031 214.96875 165.457031 C 214.863281 165.335938 215.148438 164.550781 215.328125 164.445312 C 215.5 164.457031 215.933594 164.832031 215.980469 165.011719 C 215.96875 165.183594 215.71875 165.453125 215.363281 165.601562 C 214.113281 166.148438 209.140625 165.574219 205.269531 165.769531 C 200.0625 166.042969 192.699219 166.6875 186.824219 167.492188 C 181.355469 168.269531 174.074219 169.4375 171.242188 170.394531 C 170.0625 170.773438 168.945312 171.097656 168.914062 171.558594 C 168.875 172.132812 171.175781 173.039062 172.679688 173.777344 C 174.742188 174.78125 177.988281 176.160156 180.320312 176.609375 C 182.195312 176.96875 184.371094 178.039062 185.550781 176.796875 C 188.65625 173.554688 184.0625 150.765625 183.027344 140.726562 C 182.320312 133.417969 181.273438 126.027344 180.523438 121.882812 C 180.148438 119.785156 180.0625 117.703125 179.464844 117.203125 C 179.246094 117.015625 178.964844 116.9375 178.601562 117.144531 C 176.914062 118.234375 173.121094 131.457031 170.410156 139.855469 C 167.105469 150.171875 162.867188 165.667969 160.636719 174.617188 C 159.277344 180.113281 158.351562 184.371094 157.796875 188.191406 C 157.320312 190.925781 157.601562 194.402344 157.019531 195.28125 C 156.824219 195.613281 156.53125 195.710938 156.359375 195.699219 C 156.191406 195.628906 155.882812 195.089844 155.882812 195.089844 " clip-rule="nonzero"/></clipPath></defs><g fill="#9f6d21" fill-opacity="1"><g transform="translate(65.273123, 238.524198)"><g><path d="M 1.425781 0.0390625 L 2.320312 0.0390625 L 6.925781 -10.226562 L 18.414062 -10.226562 L 22.855469 0.0390625 L 24.445312 0.0390625 L 13.242188 -26.03125 L 13.035156 -26.03125 Z M 7.210938 -10.917969 L 12.792969 -23.425781 L 18.128906 -10.917969 Z M 7.210938 -10.917969 "/></g></g></g><g fill="#9f6d21" fill-opacity="1"><g transform="translate(91.180165, 238.524198)"><g><path d="M 18.292969 -25.542969 L 10.550781 -12.546875 L 3.097656 -25.542969 L 1.34375 -25.542969 L 9.453125 -11.488281 L 9.453125 0.0390625 L 10.917969 0.0390625 L 10.917969 -11.894531 L 19.105469 -25.542969 Z M 18.292969 -25.542969 "/></g></g></g><g fill="#9f6d21" fill-opacity="1"><g transform="translate(111.62881, 238.524198)"><g><path d="M 7.984375 -14.21875 C 4.765625 -15.398438 2.566406 -16.417969 2.566406 -19.675781 C 2.566406 -23.304688 5.417969 -25.625 8.921875 -25.625 C 12.386719 -25.625 14.625 -23.957031 14.625 -23.957031 L 14.585938 -24.8125 C 14.585938 -24.8125 12.140625 -26.316406 8.882812 -26.316406 C 5.664062 -26.316406 1.34375 -24.605469 1.140625 -19.554688 C 1.019531 -15.03125 4.5625 -13.8125 7.742188 -12.628906 C 11.285156 -11.285156 15.113281 -10.632812 15.113281 -5.90625 C 15.113281 -1.957031 11.164062 0.449219 7.902344 0.449219 C 4.398438 0.449219 2.445312 -0.773438 1.019531 -1.875 L 1.019531 -0.9375 C 1.019531 -0.9375 3.503906 1.058594 7.902344 1.058594 C 12.304688 1.058594 16.5 -1.996094 16.5 -6.519531 C 16.5 -11.855469 11.246094 -13.078125 7.984375 -14.21875 Z M 7.984375 -14.21875 "/></g></g></g><g fill="#9f6d21" fill-opacity="1"><g transform="translate(129.755598, 238.524198)"><g><path d="M 2.363281 0.0820312 L 3.789062 0.0820312 L 3.789062 -25.542969 L 2.363281 -25.542969 Z M 2.363281 0.0820312 "/></g></g></g><g fill="#9f6d21" fill-opacity="1"><g transform="translate(136.069417, 238.524198)"><g><path d="M 22.734375 -25.542969 L 22.082031 -25.542969 L 22.082031 -2.117188 L 2.078125 -26.03125 L 1.957031 -26.03125 L 1.957031 0.0820312 L 2.605469 0.0820312 L 2.605469 -23.097656 L 22.609375 0.773438 L 22.734375 0.773438 Z M 22.734375 -25.542969 "/></g></g></g><g fill="#9f6d21" fill-opacity="1"><g transform="translate(160.958106, 238.524198)"><g/></g></g><g fill="#9f6d21" fill-opacity="1"><g transform="translate(171.141688, 238.524198)"><g><path d="M 1.425781 0.0390625 L 2.320312 0.0390625 L 6.925781 -10.226562 L 18.414062 -10.226562 L 22.855469 0.0390625 L 24.445312 0.0390625 L 13.242188 -26.03125 L 13.035156 -26.03125 Z M 7.210938 -10.917969 L 12.792969 -23.425781 L 18.128906 -10.917969 Z M 7.210938 -10.917969 "/></g></g></g><g fill="#9f6d21" fill-opacity="1"><g transform="translate(197.04873, 238.524198)"><g><path d="M 17.234375 -12.996094 L 17.234375 -12.304688 L 22.367188 -12.304688 L 22.367188 -1.425781 C 20.898438 -0.773438 18.496094 0.0820312 15.644531 0.0820312 C 9.289062 0.0820312 3.054688 -3.097656 3.054688 -12.671875 C 3.054688 -23.222656 11.324219 -25.382812 15.644531 -25.382812 C 20.453125 -25.382812 23.097656 -24.242188 23.097656 -24.242188 L 23.097656 -25.054688 C 23.097656 -25.054688 20.289062 -26.03125 15.644531 -26.03125 C 8.3125 -26.03125 1.628906 -22.121094 1.628906 -12.671875 C 1.628906 -1.792969 10.144531 0.773438 15.277344 0.773438 C 20.371094 0.773438 23.792969 -1.386719 23.792969 -1.386719 L 23.792969 -12.996094 Z M 17.234375 -12.996094 "/></g></g></g><g fill="#9f6d21" fill-opacity="1"><g transform="translate(222.874301, 238.524198)"><g><path d="M 14.910156 -24.890625 L 14.910156 -25.542969 L 1.957031 -25.542969 L 1.957031 0.0390625 L 14.910156 0.0390625 L 14.910156 -0.609375 L 3.382812 -0.609375 L 3.382812 -12.996094 L 13.8125 -12.996094 L 13.8125 -13.648438 L 3.382812 -13.648438 L 3.382812 -24.890625 Z M 14.910156 -24.890625 "/></g></g></g><g fill="#9f6d21" fill-opacity="1"><g transform="translate(239.534654, 238.524198)"><g><path d="M 22.734375 -25.542969 L 22.082031 -25.542969 L 22.082031 -2.117188 L 2.078125 -26.03125 L 1.957031 -26.03125 L 1.957031 0.0820312 L 2.605469 0.0820312 L 2.605469 -23.097656 L 22.609375 0.773438 L 22.734375 0.773438 Z M 22.734375 -25.542969 "/></g></g></g><g fill="#9f6d21" fill-opacity="1"><g transform="translate(264.423332, 238.524198)"><g><path d="M 23.097656 -2.28125 C 23.097656 -2.28125 20.371094 0.0820312 15.644531 0.0820312 C 11.082031 0.0820312 3.054688 -1.957031 3.054688 -12.671875 C 3.054688 -23.222656 11.691406 -25.382812 15.644531 -25.382812 C 20.453125 -25.382812 23.097656 -23.464844 23.097656 -23.464844 L 23.097656 -24.363281 C 23.097656 -24.363281 20.289062 -26.03125 15.644531 -26.03125 C 8.3125 -26.03125 1.628906 -22.121094 1.628906 -12.671875 C 1.628906 -1.792969 10.144531 0.773438 15.277344 0.773438 C 20.371094 0.773438 23.097656 -1.386719 23.097656 -1.386719 Z M 23.097656 -2.28125 "/></g></g></g><g fill="#9f6d21" fill-opacity="1"><g transform="translate(289.271292, 238.524198)"><g><path d="M 18.292969 -25.542969 L 10.550781 -12.546875 L 3.097656 -25.542969 L 1.34375 -25.542969 L 9.453125 -11.488281 L 9.453125 0.0390625 L 10.917969 0.0390625 L 10.917969 -11.894531 L 19.105469 -25.542969 Z M 18.292969 -25.542969 "/></g></g></g><g clip-path="url(#87dd0e5914)"><g clip-path="url(#91d3c1fef4)"><g clip-path="url(#331d1424ae)"><path fill="#926624" d="M 159.273438 112.523438 L 221.609375 116.824219 L 215.730469 202.050781 L 153.394531 197.75 Z M 159.273438 112.523438 " fill-opacity="1" fill-rule="nonzero"/></g></g></g></svg>