<svg xmlns="http://www.w3.org/2000/svg" xmlns:xlink="http://www.w3.org/1999/xlink" width="85" zoomAndPan="magnify" viewBox="0 0 63.75 82.499998" height="110" preserveAspectRatio="xMidYMid meet" version="1.0"><defs><clipPath id="d5762d0cef"><path d="M 0.0664062 0 L 63 0 L 63 82 L 0.0664062 82 Z M 0.0664062 0 " clip-rule="nonzero"/></clipPath><clipPath id="7394df57d2"><path d="M 6.335938 -0.902344 L 65.371094 3.171875 L 59.671875 85.769531 L 0.636719 81.695312 Z M 6.335938 -0.902344 " clip-rule="nonzero"/></clipPath><clipPath id="caef3d4ebd"><path d="M 0.785156 81.066406 C 2.132812 70.007812 3.304688 64.921875 4.53125 59.957031 C 5.933594 54.070312 7.652344 47.847656 9.660156 40.882812 C 12.121094 32.425781 16.015625 19.371094 18.28125 12.894531 C 19.464844 9.394531 20.265625 7.101562 21.359375 4.890625 C 22.175781 3.242188 22.914062 1.0625 23.824219 0.65625 C 24.363281 0.460938 25.0625 0.566406 25.554688 1.070312 C 27.035156 2.582031 27.507812 9.363281 28.359375 14.882812 C 29.554688 23.0625 30.785156 36.707031 31.414062 45.4375 C 31.84375 51.980469 32.898438 60.507812 32.105469 62.683594 C 31.890625 63.253906 31.640625 63.472656 31.214844 63.679688 C 30.726562 63.9375 29.847656 63.9375 29.023438 63.9375 C 27.96875 63.921875 26.921875 63.792969 25.539062 63.402344 C 23.347656 62.839844 19.679688 61.53125 17.46875 60.441406 C 15.769531 59.558594 13.71875 58.65625 13.191406 57.738281 C 12.878906 57.1875 12.925781 56.488281 13.1875 56.09375 C 13.644531 55.480469 14.65625 55.257812 15.976562 54.820312 C 19.09375 53.863281 26.519531 52.613281 32.089844 51.824219 C 38.136719 50.949219 45.691406 50.355469 51.054688 50.019531 C 55.003906 49.824219 60.082031 49.351562 61.398438 49.855469 C 61.792969 50.058594 62.011719 50.308594 62 50.484375 C 61.929688 50.652344 61.082031 51.007812 60.976562 50.882812 C 60.867188 50.757812 61.15625 49.953125 61.339844 49.851562 C 61.515625 49.863281 61.957031 50.246094 62.003906 50.425781 C 61.992188 50.597656 61.738281 50.875 61.375 51.027344 C 60.105469 51.585938 55.039062 51 51.09375 51.199219 C 45.789062 51.476562 38.289062 52.132812 32.304688 52.953125 C 26.734375 53.742188 19.316406 54.933594 16.429688 55.90625 C 15.230469 56.292969 14.089844 56.628906 14.058594 57.09375 C 14.019531 57.679688 16.363281 58.601562 17.894531 59.355469 C 19.996094 60.378906 23.304688 61.78125 25.679688 62.238281 C 27.589844 62.605469 29.804688 63.699219 31.007812 62.429688 C 34.167969 59.128906 29.492188 35.914062 28.433594 25.6875 C 27.714844 18.242188 26.652344 10.714844 25.886719 6.492188 C 25.503906 4.355469 25.417969 2.234375 24.804688 1.722656 C 24.585938 1.53125 24.296875 1.453125 23.929688 1.664062 C 22.210938 2.777344 18.34375 16.246094 15.582031 24.800781 C 12.21875 35.308594 7.898438 51.09375 5.628906 60.210938 C 4.242188 65.808594 3.296875 70.144531 2.734375 74.039062 C 2.25 76.824219 2.535156 80.363281 1.945312 81.261719 C 1.746094 81.601562 1.445312 81.699219 1.269531 81.6875 C 1.097656 81.613281 0.785156 81.066406 0.785156 81.066406 " clip-rule="nonzero"/></clipPath></defs><g clip-path="url(#d5762d0cef)"><g clip-path="url(#7394df57d2)"><g clip-path="url(#caef3d4ebd)"><path fill="#9f6d21" d="M 4.238281 -3.042969 L 67.738281 1.339844 L 61.75 88.15625 L -1.75 83.773438 Z M 4.238281 -3.042969 " fill-opacity="1" fill-rule="nonzero"/></g></g></g></svg>