<svg xmlns="http://www.w3.org/2000/svg" xmlns:xlink="http://www.w3.org/1999/xlink" width="345" zoomAndPan="magnify" viewBox="0 0 258.75 44.999999" height="60" preserveAspectRatio="xMidYMid meet" version="1.0"><defs><g/></defs><g fill="#9f6d21" fill-opacity="1"><g transform="translate(16.768111, 33.543267)"><g><path d="M 1.3125 0.0390625 L 2.136719 0.0390625 L 6.375 -9.410156 L 16.945312 -9.410156 L 21.03125 0.0390625 L 22.496094 0.0390625 L 12.183594 -23.957031 L 11.996094 -23.957031 Z M 6.636719 -10.046875 L 11.773438 -21.558594 L 16.683594 -10.046875 Z M 6.636719 -10.046875 "/></g></g></g><g fill="#9f6d21" fill-opacity="1"><g transform="translate(40.609646, 33.543267)"><g><path d="M 16.832031 -23.507812 L 9.710938 -11.546875 L 2.847656 -23.507812 L 1.238281 -23.507812 L 8.699219 -10.574219 L 8.699219 0.0390625 L 10.046875 0.0390625 L 10.046875 -10.949219 L 17.582031 -23.507812 Z M 16.832031 -23.507812 "/></g></g></g><g fill="#9f6d21" fill-opacity="1"><g transform="translate(59.427969, 33.543267)"><g><path d="M 7.347656 -13.085938 C 4.386719 -14.171875 2.363281 -15.109375 2.363281 -18.109375 C 2.363281 -21.445312 4.988281 -23.582031 8.210938 -23.582031 C 11.398438 -23.582031 13.460938 -22.046875 13.460938 -22.046875 L 13.421875 -22.832031 C 13.421875 -22.832031 11.171875 -24.21875 8.171875 -24.21875 C 5.210938 -24.21875 1.238281 -22.644531 1.050781 -17.996094 C 0.9375 -13.835938 4.199219 -12.710938 7.125 -11.621094 C 10.386719 -10.386719 13.910156 -9.785156 13.910156 -5.4375 C 13.910156 -1.800781 10.273438 0.414062 7.273438 0.414062 C 4.050781 0.414062 2.25 -0.710938 0.9375 -1.726562 L 0.9375 -0.863281 C 0.9375 -0.863281 3.222656 0.976562 7.273438 0.976562 C 11.324219 0.976562 15.183594 -1.835938 15.183594 -6 C 15.183594 -10.910156 10.347656 -12.035156 7.347656 -13.085938 Z M 7.347656 -13.085938 "/></g></g></g><g fill="#9f6d21" fill-opacity="1"><g transform="translate(76.109551, 33.543267)"><g><path d="M 2.175781 0.0742188 L 3.488281 0.0742188 L 3.488281 -23.507812 L 2.175781 -23.507812 Z M 2.175781 0.0742188 "/></g></g></g><g fill="#9f6d21" fill-opacity="1"><g transform="translate(81.919985, 33.543267)"><g><path d="M 20.921875 -23.507812 L 20.320312 -23.507812 L 20.320312 -1.949219 L 1.910156 -23.957031 L 1.800781 -23.957031 L 1.800781 0.0742188 L 2.398438 0.0742188 L 2.398438 -21.257812 L 20.808594 0.710938 L 20.921875 0.710938 Z M 20.921875 -23.507812 "/></g></g></g><g fill="#9f6d21" fill-opacity="1"><g transform="translate(104.824358, 33.543267)"><g/></g></g><g fill="#9f6d21" fill-opacity="1"><g transform="translate(114.196027, 33.543267)"><g><path d="M 1.3125 0.0390625 L 2.136719 0.0390625 L 6.375 -9.410156 L 16.945312 -9.410156 L 21.03125 0.0390625 L 22.496094 0.0390625 L 12.183594 -23.957031 L 11.996094 -23.957031 Z M 6.636719 -10.046875 L 11.773438 -21.558594 L 16.683594 -10.046875 Z M 6.636719 -10.046875 "/></g></g></g><g fill="#9f6d21" fill-opacity="1"><g transform="translate(138.037562, 33.543267)"><g><path d="M 15.859375 -11.960938 L 15.859375 -11.324219 L 20.582031 -11.324219 L 20.582031 -1.3125 C 19.234375 -0.710938 17.019531 0.0742188 14.398438 0.0742188 C 8.546875 0.0742188 2.8125 -2.847656 2.8125 -11.660156 C 2.8125 -21.371094 10.421875 -23.359375 14.398438 -23.359375 C 18.820312 -23.359375 21.257812 -22.308594 21.257812 -22.308594 L 21.257812 -23.058594 C 21.257812 -23.058594 18.671875 -23.957031 14.398438 -23.957031 C 7.648438 -23.957031 1.5 -20.359375 1.5 -11.660156 C 1.5 -1.648438 9.335938 0.710938 14.058594 0.710938 C 18.746094 0.710938 21.894531 -1.273438 21.894531 -1.273438 L 21.894531 -11.960938 Z M 15.859375 -11.960938 "/></g></g></g><g fill="#9f6d21" fill-opacity="1"><g transform="translate(161.804121, 33.543267)"><g><path d="M 13.722656 -22.90625 L 13.722656 -23.507812 L 1.800781 -23.507812 L 1.800781 0.0390625 L 13.722656 0.0390625 L 13.722656 -0.5625 L 3.113281 -0.5625 L 3.113281 -11.960938 L 12.710938 -11.960938 L 12.710938 -12.558594 L 3.113281 -12.558594 L 3.113281 -22.90625 Z M 13.722656 -22.90625 "/></g></g></g><g fill="#9f6d21" fill-opacity="1"><g transform="translate(177.136184, 33.543267)"><g><path d="M 20.921875 -23.507812 L 20.320312 -23.507812 L 20.320312 -1.949219 L 1.910156 -23.957031 L 1.800781 -23.957031 L 1.800781 0.0742188 L 2.398438 0.0742188 L 2.398438 -21.257812 L 20.808594 0.710938 L 20.921875 0.710938 Z M 20.921875 -23.507812 "/></g></g></g><g fill="#9f6d21" fill-opacity="1"><g transform="translate(200.040547, 33.543267)"><g><path d="M 21.257812 -2.097656 C 21.257812 -2.097656 18.746094 0.0742188 14.398438 0.0742188 C 10.199219 0.0742188 2.8125 -1.800781 2.8125 -11.660156 C 2.8125 -21.371094 10.761719 -23.359375 14.398438 -23.359375 C 18.820312 -23.359375 21.257812 -21.59375 21.257812 -21.59375 L 21.257812 -22.421875 C 21.257812 -22.421875 18.671875 -23.957031 14.398438 -23.957031 C 7.648438 -23.957031 1.5 -20.359375 1.5 -11.660156 C 1.5 -1.648438 9.335938 0.710938 14.058594 0.710938 C 18.746094 0.710938 21.257812 -1.273438 21.257812 -1.273438 Z M 21.257812 -2.097656 "/></g></g></g><g fill="#9f6d21" fill-opacity="1"><g transform="translate(222.907438, 33.543267)"><g><path d="M 16.832031 -23.507812 L 9.710938 -11.546875 L 2.847656 -23.507812 L 1.238281 -23.507812 L 8.699219 -10.574219 L 8.699219 0.0390625 L 10.046875 0.0390625 L 10.046875 -10.949219 L 17.582031 -23.507812 Z M 16.832031 -23.507812 "/></g></g></g></svg>